<svg width="24" height="24" viewBox="0 0 24 24" fill="none" xmlns="http://www.w3.org/2000/svg">
<path d="M15.2004 19.2C15.2004 20.5255 14.1259 21.6 12.8004 21.6C11.4749 21.6 4.80039 21.6 4.80039 21.6C3.47491 21.6 2.40039 20.5255 2.40039 19.2C2.40039 17.8745 2.40039 12.5255 2.40039 11.2C2.40039 9.87452 3.47491 8.8 4.80039 8.8L12.8004 8.8C14.1259 8.8 15.2004 9.87452 15.2004 11.2V19.2Z" stroke="#0066CC" stroke-width="2" stroke-linecap="round" stroke-linejoin="round"/>
<path d="M21.6004 12.8C21.6004 14.1255 20.5259 15.2 19.2004 15.2C17.8749 15.2 11.2004 15.2 11.2004 15.2C9.87491 15.2 8.80039 14.1255 8.80039 12.8C8.80039 11.4745 8.80039 6.12548 8.80039 4.8C8.80039 3.47452 9.87491 2.4 11.2004 2.4L19.2004 2.4C20.5259 2.4 21.6004 3.47452 21.6004 4.8V12.8Z" stroke="#0066CC" stroke-width="2" stroke-linecap="round" stroke-linejoin="round"/>
</svg>
