<svg width="24" height="24" viewBox="0 0 24 24" fill="none" xmlns="http://www.w3.org/2000/svg">
<path d="M8.79044 9.07187C9.66452 8.44872 10.6981 8.12227 11.7828 8.12116C12.8675 8.12005 13.8976 8.44725 14.7732 9.06576M6.45533 6.50815C8.0121 5.40191 9.85663 4.81773 11.7833 4.8129C13.7129 4.81093 15.5534 5.3942 17.1079 6.49726M2.41982 18.2669C2.41982 18.2669 2.43271 16.834 2.4017 16.4487C2.38233 15.8521 2.57693 15.3667 3.02267 14.921C3.06553 14.8781 3.11124 14.8324 3.15696 14.7924C4.05975 13.9979 5.17914 13.5401 6.0529 13.2309C8.45144 12.395 10.9807 12.0841 13.5666 12.3098C15.7129 12.5074 17.4479 12.9395 19.0428 13.6715C20.0185 14.1158 20.6688 14.5718 21.1478 15.1365C21.4529 15.4987 21.6009 15.9038 21.6004 16.3777L21.5984 18.3244C21.5896 18.5955 21.5123 18.8154 21.3665 18.9611C21.1865 19.1411 20.9325 19.1785 20.7498 19.1787C20.7441 19.1787 20.7384 19.1787 20.7326 19.1787C20.3958 19.1905 20.0619 19.188 19.7079 19.1826C19.5281 19.1799 19.3454 19.1801 19.1599 19.1775L17.6014 19.1791C16.9962 19.1797 16.7168 18.9002 16.7174 18.2951C16.7176 18.1295 16.7149 17.9669 16.7179 17.8042C16.7127 17.3189 16.7123 17.6956 16.7385 17.2246C16.7385 17.2132 16.7414 17.2046 16.7385 17.1961C16.739 16.7051 16.4538 16.5113 16.2398 16.4002C16.2284 16.3945 16.217 16.3888 16.2056 16.3831C15.5123 16.0955 14.7646 15.9193 13.78 15.8033L13.7742 15.8033C12.0161 15.6224 10.429 15.6983 8.93296 16.0366C8.74168 16.0796 8.56179 16.1397 8.39047 16.197C8.23628 16.2485 8.09065 16.2972 7.95647 16.3288C7.93933 16.3345 7.91935 16.3374 7.90222 16.3431C7.75659 16.3918 7.64235 16.4604 7.54806 16.5547C7.3109 16.7918 7.3106 17.0887 7.3105 17.1857L7.30935 18.3047C7.30915 18.4988 7.27177 18.77 7.09176 18.95C6.91461 19.1272 6.65768 19.1617 6.47215 19.1533C6.46644 19.1533 6.46644 19.1533 6.46073 19.1533L3.31519 19.1566C2.73004 19.16 2.41982 18.2669 2.41982 18.2669Z" stroke="#0066CC" stroke-width="2" stroke-linecap="round" stroke-linejoin="round"/>
</svg>
