<svg width="66" height="66" viewBox="0 0 66 66" fill="none" xmlns="http://www.w3.org/2000/svg">
<path d="M11.8978 54.5142C12.831 53.469 19.1008 48.5449 22.2172 46.1174C23.3522 45.2333 24.7445 44.7578 26.1832 44.7578C29.6621 44.7578 36.3659 44.7578 39.8615 44.7578C41.317 44.7578 42.7231 45.2535 43.895 46.1168C47.9189 49.0812 51.6912 51.29 55.8017 54.5142M16.776 59.3918H49.2974C54.6858 59.3918 59.0539 55.0237 59.0539 49.6353V17.1139C59.0539 11.7255 54.6858 7.35742 49.2974 7.35742H16.776C11.3876 7.35742 7.01953 11.7255 7.01953 17.1139V49.6353C7.01953 55.0237 11.3876 59.3918 16.776 59.3918ZM42.3556 25.9815C42.3556 21.0179 38.1654 16.9623 33.0367 16.9623C27.9081 16.9623 23.7178 21.0179 23.7178 25.9815C23.7178 30.9451 27.9081 35.0007 33.0367 35.0007C38.1653 35.0007 42.3556 30.9451 42.3556 25.9815Z" stroke="black" stroke-width="1.66777"/>
</svg>
