<svg width="152" height="101" viewBox="0 0 152 101" fill="none" xmlns="http://www.w3.org/2000/svg">
<g clip-path="url(#clip0_221_1384)">
<path d="M0.5 12.625C0.5 5.65241 6.13375 0 13.0833 0H138.917C145.866 0 151.5 5.65241 151.5 12.625V88.375C151.5 95.3476 145.866 101 138.917 101H13.0833C6.13375 101 0.5 95.3476 0.5 88.375V12.625Z" fill="#1A1A1A"/>
<path d="M117.557 79.3144C123.357 79.3144 126.087 77.0942 128.471 70.3642L138.916 40.97H132.869L125.864 63.7112H125.741L118.737 41.0008H112.518L122.595 68.9782L122.055 70.6799C121.674 73.1157 119.494 74.8534 117.041 74.6737C116.573 74.6737 115.664 74.625 115.296 74.5762V79.1963C116.046 79.299 116.803 79.3477 117.557 79.3452V79.3144ZM97.4035 64.5942C94.2313 64.5942 92.2179 63.0542 92.2179 60.7236C92.2179 58.3083 94.1596 56.9017 97.8717 56.6784L104.482 56.26V58.4315C104.336 62.0095 101.325 64.7944 97.7591 64.6481C97.6389 64.643 97.5212 64.6327 97.4035 64.6224V64.5942ZM95.8072 69.1553C99.4066 69.2528 102.773 67.3714 104.582 64.2477H104.705V68.8678H110.21V49.7328C110.21 44.1836 105.787 40.6081 98.9768 40.6081C92.6605 40.6081 87.9891 44.2324 87.8177 49.2144H93.1773C93.8168 46.681 96.2165 45.0101 98.8054 45.2924C102.443 45.2924 104.482 46.9942 104.482 50.1256V52.2457L97.0633 52.6897C90.156 53.1081 86.4209 55.9443 86.4209 60.8776C86.4158 65.8801 90.2736 69.1835 95.8046 69.1835L95.8072 69.1553ZM63.9031 35.4464H70.7593C75.9218 35.4464 78.8715 38.2082 78.8715 43.0671C78.8715 47.9259 75.9218 50.7108 70.7362 50.7108H63.9031V35.4464ZM57.9552 30.4157V68.8601H63.9031V55.7544H72.1382C78.8459 56.1163 84.5739 50.9546 84.9346 44.2247C84.955 43.8422 84.9576 43.4623 84.9422 43.0799C85.2595 36.4244 80.1404 30.7724 73.5068 30.4516C73.1154 30.4336 72.7266 30.4362 72.3351 30.4542L57.9552 30.4157ZM38.2131 37.5897C34.7953 37.392 31.8712 39.5378 30.2493 39.5378C28.6273 39.5378 26.1202 37.6898 23.4162 37.7411C19.8346 37.8335 16.5703 39.8227 14.8383 42.9695C11.1519 49.3324 13.879 58.7523 17.4426 63.9294C19.1874 66.4961 21.28 69.3067 24.0301 69.2066C26.6344 69.1091 27.668 67.5049 30.8146 67.5049C33.9613 67.5049 34.8951 69.2066 37.6477 69.1553C40.4976 69.1065 42.2935 66.5885 44.0434 64.0218C45.2765 62.2046 46.2358 60.2154 46.8933 58.1183C43.5343 56.645 41.3572 53.3263 41.3393 49.6481C41.3905 46.4038 43.084 43.411 45.8367 41.7093C44.0818 39.2093 41.2651 37.6744 38.2182 37.5666L38.2131 37.5897ZM36.0795 34.1939C34.5829 36.0856 32.2933 37.1713 29.886 37.1277C29.7325 34.7714 30.5307 32.4536 32.0989 30.6929C33.6594 28.8756 35.8595 27.736 38.2387 27.5127C38.4075 29.9357 37.6324 32.3279 36.0744 34.1862" fill="white"/>
</g>
<defs>
<clipPath id="clip0_221_1384">
<rect width="151" height="101" fill="white" transform="translate(0.5)"/>
</clipPath>
</defs>
</svg>
