<svg width="152" height="101" viewBox="0 0 152 101" fill="none" xmlns="http://www.w3.org/2000/svg">
<g clip-path="url(#clip0_221_1387)">
<path d="M0.5 12.625C0.5 5.65241 6.13375 0 13.0833 0H138.917C145.866 0 151.5 5.65241 151.5 12.625V88.375C151.5 95.3476 145.866 101 138.917 101H13.0833C6.13375 101 0.5 95.3476 0.5 88.375V12.625Z" fill="#001833"/>
<path d="M138.491 38.8921H131.99L128.227 54.8195L127.699 57.0056C127.336 57.1053 126.973 57.2039 126.61 57.2703C125.95 57.4032 125.257 57.4696 124.531 57.4696C123.706 57.4696 123.047 57.3367 122.551 57.1042C122.089 56.8727 121.725 56.5416 121.528 56.0776C121.329 55.6479 121.263 55.1174 121.296 54.5216C121.329 53.9258 121.462 53.2635 121.627 52.6013L123.606 44.323L124.893 38.8267H118.26L115.257 51.5414C114.912 52.9755 114.702 54.439 114.629 55.9126C114.563 57.3024 114.795 58.4951 115.257 59.5882C115.719 60.648 116.544 61.4753 117.666 62.1043C118.788 62.7334 120.405 63.0313 122.452 63.0313C123.871 63.0313 125.125 62.8984 126.182 62.6669C126.215 62.6669 126.281 62.6337 126.314 62.6337C126.016 63.9582 125.422 65.0181 124.498 65.8453C123.541 66.6737 122.155 67.1045 120.306 67.1045C119.515 67.1045 118.788 67.0713 118.128 66.9716L116.84 72.3705C117.698 72.4701 118.656 72.5366 119.711 72.5366C121.691 72.5366 123.408 72.304 124.892 71.8732C126.378 71.4103 127.632 70.748 128.721 69.8211C129.777 68.8931 130.668 67.7347 131.394 66.3769C132.12 64.9871 132.681 63.3635 133.11 61.4432L137.598 42.5024L138.49 38.8932L138.491 38.8921ZM111.264 52.5027C110.864 54.1372 110.741 55.8274 110.899 57.5029C111.065 59.1917 111.725 61.7411 112.353 63.0324H106.082C105.323 61.7411 105.356 61.1121 105.192 60.7145C104.367 61.3851 103.457 61.9419 102.485 62.3701C101.495 62.802 100.406 63.0324 99.1516 63.0324C97.699 63.0324 96.4451 62.7677 95.4219 62.2716C94.4263 61.7962 93.556 61.0929 92.8809 60.2183C92.2209 59.3567 91.7595 58.3634 91.4614 57.205C91.1634 56.0455 91.0321 54.8206 91.0321 53.4961C91.0321 51.4761 91.3963 49.589 92.0895 47.8016C92.8147 46.013 93.8048 44.457 95.0587 43.1325C96.3138 41.808 99.3834 38.8611 104.399 38.8611H114.466L111.264 52.5027ZM106.676 44.3906C103.641 44.3906 103.078 44.3906 101.825 45.0196C100.934 45.4825 100.208 46.178 99.581 46.9732C98.921 47.8073 98.4074 48.748 98.0622 49.7551C97.6948 50.8089 97.5053 51.9168 97.5014 53.0332C97.5014 54.423 97.7332 55.5493 98.1946 56.3777C98.656 57.205 99.5148 57.6014 100.769 57.6014C101.429 57.6014 102.056 57.4696 102.584 57.205C103.112 56.9392 103.706 56.5095 104.3 55.8804C104.366 55.1517 104.465 54.3898 104.598 53.5958C104.729 52.8006 104.895 52.0398 105.026 51.3775L106.676 44.3895V44.3906ZM89.2505 48.4605C89.2505 50.6134 88.8863 52.5669 88.1942 54.3544C87.5368 56.0731 86.5375 57.6395 85.257 58.9581C84.002 60.2494 82.5173 61.2427 80.7678 61.9703C79.0194 62.6991 77.1385 63.0634 75.0921 63.0634C74.102 63.0634 73.1118 62.9637 72.0886 62.7976L70.1084 70.779H63.607L71.1625 38.9253H79.8428C81.4941 38.9253 82.9114 39.1911 84.0671 39.6861C85.1843 40.1463 86.187 40.8472 87.0043 41.7393C87.7637 42.6009 88.3244 43.6275 88.6876 44.7859C89.085 45.9122 89.2494 47.1371 89.2494 48.4627L89.2505 48.4605ZM73.3094 57.5007C73.8039 57.6335 74.432 57.6668 75.1583 57.6668C76.3129 57.6668 77.3361 57.4674 78.2931 57.0355C79.2123 56.6168 80.033 56.0081 80.7016 55.2492C81.3628 54.4873 81.8573 53.5603 82.2535 52.5005C82.6343 51.3584 82.8238 50.1609 82.8143 48.9566C82.8143 47.6986 82.5493 46.6066 81.9897 45.745C81.4279 44.8513 80.472 44.3873 79.0856 44.3873H76.5105L73.3094 57.4995V57.5007ZM59.6466 57.5007C58.8209 57.5007 58.162 57.3678 57.6664 57.1363C57.2028 56.9037 56.8407 56.5737 56.6431 56.1097C56.4445 55.6789 56.3782 55.1495 56.4113 54.5537C56.4445 53.9568 56.5769 53.2945 56.7425 52.6323L58.7216 44.3551H66.1148L67.467 38.8588H60.0406L61.757 31.9051L54.8252 32.9971L50.4365 51.6068C50.0915 53.0409 49.8816 54.5044 49.8095 55.9779C49.7433 57.3689 49.9751 58.5616 50.4365 59.6535C50.8978 60.7134 51.7235 61.5406 52.8461 62.1697C53.9675 62.7987 55.5846 63.0966 57.631 63.0966C59.0505 63.0966 60.3044 62.9637 61.3608 62.7323C61.4601 62.6991 61.6246 62.6658 61.7228 62.6326L63.0772 56.9713C62.6136 57.1374 62.1522 57.2371 61.7228 57.3013C61.0639 57.4342 60.3707 57.5007 59.6455 57.5007H59.6466ZM43.1116 38.8921L37.3686 63.0645H43.8699L49.581 38.8921H43.1127H43.1116ZM50.2731 36.1112L51.2632 31.9051H44.7618L43.7717 36.1112H50.2731ZM28.7236 38.9242C30.1089 38.9242 31.3308 39.19 32.3529 39.6861C33.3415 40.158 34.2106 40.8487 34.8949 41.7061C35.5705 42.5985 36.074 43.6096 36.3796 44.6874C36.7096 45.8126 36.8741 47.0374 36.8741 48.3619C36.8741 50.3819 36.512 52.2701 35.7526 54.0908C34.9932 55.8793 34.0031 57.4685 32.7171 58.7919C31.4187 60.1299 29.871 61.199 28.1618 61.9382C26.4122 62.7002 24.5313 63.0966 22.4849 63.0966C22.2211 63.0966 21.7597 63.0966 21.0996 63.0634C20.4396 63.0634 19.6801 62.997 18.8556 62.8652C17.9568 62.7303 17.0647 62.5537 16.1822 62.3358C15.2599 62.1109 14.3638 61.789 13.5088 61.3756L21.0654 29.5208L27.8317 28.4609L25.1572 39.7526C25.751 39.4868 26.2798 39.2885 26.8736 39.1567C27.4343 38.9906 28.0613 38.9242 28.7225 38.9242H28.7236ZM23.0456 57.6679C24.0689 57.6679 25.0259 57.4353 25.9166 56.9071C26.8197 56.4049 27.6158 55.7299 28.26 54.9203C28.929 54.0747 29.4531 53.1233 29.8108 52.1051C30.1783 51.0514 30.3678 49.9434 30.3716 48.8271C30.3716 47.4361 30.1409 46.3441 29.6784 45.549C29.217 44.7538 28.26 44.3906 27.0061 44.3906C26.6087 44.3906 26.1804 44.4238 25.5204 44.5899C24.8603 44.7206 24.2996 45.0528 23.7708 45.5158L20.933 57.535C21.7906 57.6679 22.0555 57.7 22.2862 57.7C22.4518 57.6668 22.7156 57.6668 23.0456 57.6668V57.6679Z" fill="#CCE4FF"/>
</g>
<defs>
<clipPath id="clip0_221_1387">
<rect width="151" height="101" fill="white" transform="translate(0.5)"/>
</clipPath>
</defs>
</svg>
