<svg width="70" height="70" viewBox="0 0 70 70" fill="none" xmlns="http://www.w3.org/2000/svg">
<path d="M32.0833 58.3333L32.0833 59.5L32.0833 58.3333ZM61.25 49.2917C61.8943 49.2917 62.4167 48.7693 62.4167 48.125C62.4167 47.4807 61.8943 46.9583 61.25 46.9583V49.2917ZM45.5 46.9583C44.8557 46.9583 44.3333 47.4807 44.3333 48.125C44.3333 48.7693 44.8557 49.2917 45.5 49.2917V46.9583ZM52.2083 55.9996C52.2083 56.6439 52.7307 57.1663 53.375 57.1663C54.0193 57.1663 54.5417 56.6439 54.5417 55.9996H52.2083ZM54.5417 40.2496C54.5417 39.6053 54.0193 39.0829 53.375 39.0829C52.7307 39.0829 52.2083 39.6053 52.2083 40.2496H54.5417ZM40.2826 58.9475C40.9204 58.8559 41.3633 58.2647 41.2717 57.6269C41.1801 56.9891 40.5889 56.5463 39.9511 56.6378L40.2826 58.9475ZM37.795 40.848C38.4358 40.9151 39.0098 40.4501 39.077 39.8093C39.1442 39.1685 38.6791 38.5945 38.0383 38.5273L37.795 40.848ZM32.0833 57.1667C25.0756 57.1667 19.4207 56.0388 15.5642 54.2817C11.6437 52.4955 9.91667 50.242 9.91667 48.125H7.58333C7.58333 51.6459 10.4081 54.4966 14.5968 56.4051C18.8495 58.3427 24.8612 59.5 32.0833 59.5L32.0833 57.1667ZM9.91667 48.125C9.91667 47.5787 10.3124 46.7857 11.5304 45.8299C12.7072 44.9064 14.4448 44.0002 16.5939 43.2032C20.8833 41.6125 26.5788 40.5417 32.0833 40.5417V38.2083C26.312 38.2083 20.3409 39.325 15.7826 41.0155C13.5079 41.8591 11.5263 42.867 10.0899 43.9943C8.69474 45.0892 7.58333 46.4838 7.58333 48.125H9.91667ZM39.6667 20.5771C39.6667 24.4651 36.2735 28 32.0833 28V30.3333C37.5582 30.3333 42 25.7577 42 20.5771H39.6667ZM32.0833 28C27.8932 28 24.5 24.4651 24.5 20.5771H22.1667C22.1667 25.7577 26.6085 30.3333 32.0833 30.3333V28ZM24.5 20.5771C24.5 16.6341 27.947 12.8333 32.0833 12.8333V10.5C26.5547 10.5 22.1667 15.4516 22.1667 20.5771H24.5ZM32.0833 12.8333C36.2197 12.8333 39.6667 16.6341 39.6667 20.5771H42C42 15.4516 37.612 10.5 32.0833 10.5V12.8333ZM61.25 46.9583H53.375V49.2917H61.25V46.9583ZM53.375 46.9583H45.5V49.2917H53.375V46.9583ZM54.5417 55.9996V48.125H52.2083V55.9996H54.5417ZM54.5417 48.125V40.2496H52.2083V48.125H54.5417ZM39.9511 56.6378C37.5688 56.9798 34.9354 57.1667 32.0833 57.1667L32.0833 59.5C35.036 59.5 37.7808 59.3066 40.2826 58.9475L39.9511 56.6378ZM32.0833 40.5417C33.9198 40.5417 35.8569 40.6448 37.795 40.848L38.0383 38.5273C36.0233 38.3161 34.0049 38.2083 32.0833 38.2083V40.5417Z" fill="black"/>
</svg>
