<svg width="65" height="65" viewBox="0 0 65 65" fill="none" xmlns="http://www.w3.org/2000/svg">
<path d="M21.4698 54.467C20.9454 54.6403 20.6608 55.2059 20.8341 55.7303C21.0074 56.2547 21.573 56.5393 22.0973 56.366L21.4698 54.467ZM37.5434 56.4582L37.4535 55.4622L37.4535 55.4622L37.5434 56.4582ZM46.9993 54.3748L47.4349 55.275L47.4349 55.275L46.9993 54.3748ZM56.0347 46.2258L55.2602 45.5932L55.2602 45.5932L56.0347 46.2258ZM49.855 41.127L50.5591 41.8371L50.5591 41.8371L49.855 41.127ZM45.6937 45.2526L46.3978 45.9627L46.3978 45.9627L45.6937 45.2526ZM34.3914 46.0832C33.8392 46.0832 33.3914 46.5309 33.3914 47.0832C33.3914 47.6355 33.8392 48.0832 34.3914 48.0832V46.0832ZM55.0739 40.6146L54.5225 41.4488L54.5225 41.4488L55.0739 40.6146ZM24.9817 39.2478L25.4259 40.1437L25.4259 40.1437L24.9817 39.2478ZM36.2919 38.222L36.5529 37.2567L36.5529 37.2567L36.2919 38.222ZM40.7087 39.4163L40.4476 40.3816L40.4476 40.3816L40.7087 39.4163ZM42.1081 44.6409L41.404 43.9308L41.404 43.9308L42.1081 44.6409ZM38.9407 46.373C38.5485 46.7619 38.5458 47.395 38.9346 47.7872C39.3234 48.1794 39.9566 48.1822 40.3488 47.7933L38.9407 46.373ZM22.0973 56.366C22.6919 56.1695 23.5799 56.1201 24.7665 56.204C25.9328 56.2865 27.2708 56.4868 28.7216 56.7127C31.5649 57.1555 34.8566 57.7049 37.6334 57.4541L37.4535 55.4622C34.977 55.6859 31.9647 55.1936 29.0294 54.7365C27.5908 54.5125 26.1709 54.2984 24.9076 54.209C23.6645 54.1211 22.4511 54.1427 21.4698 54.467L22.0973 56.366ZM37.6334 57.4541C41.7635 57.0811 43.4817 57.1877 47.4349 55.275L46.5638 53.4747C42.9961 55.2008 41.6575 55.0825 37.4535 55.4622L37.6334 57.4541ZM47.4349 55.275C50.9295 53.5842 54.5372 49.6396 56.8091 46.8585L55.2602 45.5932C52.9786 48.3862 49.6161 51.9979 46.5638 53.4747L47.4349 55.275ZM49.1509 40.4168L44.9897 44.5424L46.3978 45.9627L50.5591 41.8371L49.1509 40.4168ZM41.2362 46.0832H34.3914V48.0832H41.2362V46.0832ZM44.9897 44.5424C43.9957 45.528 42.6456 46.0832 41.2362 46.0832V48.0832C43.1706 48.0832 45.0274 47.3214 46.3978 45.9627L44.9897 44.5424ZM55.6253 39.7804C53.5907 38.4356 50.8822 38.7004 49.1509 40.4168L50.5591 41.8371C51.6161 40.7891 53.2762 40.6251 54.5225 41.4488L55.6253 39.7804ZM56.8091 46.8585C58.6647 44.587 57.9939 41.3459 55.6253 39.7804L54.5225 41.4488C55.9873 42.417 56.3042 44.3152 55.2602 45.5932L56.8091 46.8585ZM10.2263 37.6665H18.6316V35.6665H10.2263V37.6665ZM19.7329 38.7498V57.4998H21.7329V38.7498H19.7329ZM18.6316 58.5832H10.2263V60.5832H18.6316V58.5832ZM9.125 57.4998V38.7498H7.125V57.4998H9.125ZM10.2263 58.5832C9.60995 58.5832 9.125 58.0901 9.125 57.4998H7.125C7.125 59.2108 8.52163 60.5832 10.2263 60.5832V58.5832ZM19.7329 57.4998C19.7329 58.0901 19.2479 58.5832 18.6316 58.5832V60.5832C20.3363 60.5832 21.7329 59.2108 21.7329 57.4998H19.7329ZM18.6316 37.6665C19.2479 37.6665 19.7329 38.1596 19.7329 38.7498H21.7329C21.7329 37.0389 20.3363 35.6665 18.6316 35.6665V37.6665ZM10.2263 35.6665C8.52163 35.6665 7.125 37.0389 7.125 38.7498H9.125C9.125 38.1596 9.60996 37.6665 10.2263 37.6665V35.6665ZM22.2277 41.7291L25.4259 40.1437L24.5376 38.3518L21.3394 39.9372L22.2277 41.7291ZM31.5599 38.7082H32.4216V36.7082H31.5599V38.7082ZM36.0308 39.1874L40.4476 40.3816L40.9697 38.451L36.5529 37.2567L36.0308 39.1874ZM41.404 43.9308L38.9407 46.373L40.3488 47.7933L42.8122 45.351L41.404 43.9308ZM40.4476 40.3816C42.0468 40.814 42.562 42.7827 41.404 43.9308L42.8121 45.351C45.0768 43.1057 44.0403 39.2812 40.9697 38.451L40.4476 40.3816ZM32.4216 38.7082C33.6409 38.7082 34.8547 38.8693 36.0308 39.1874L36.5529 37.2567C35.2064 36.8926 33.8171 36.7082 32.4216 36.7082V38.7082ZM25.4259 40.1437C27.33 39.1998 29.4302 38.7082 31.5599 38.7082V36.7082C29.1225 36.7082 26.7183 37.2708 24.5376 38.3518L25.4259 40.1437ZM47.05 22.0832C47.05 26.1252 43.7427 29.4165 39.6447 29.4165V31.4165C44.831 31.4165 49.05 27.2459 49.05 22.0832H47.05ZM39.6447 29.4165C35.5468 29.4165 32.2395 26.1252 32.2395 22.0832H30.2395C30.2395 27.2459 34.4585 31.4165 39.6447 31.4165V29.4165ZM32.2395 22.0832C32.2395 18.0412 35.5468 14.7498 39.6447 14.7498V12.7498C34.4585 12.7498 30.2395 16.9204 30.2395 22.0832H32.2395ZM39.6447 14.7498C43.7427 14.7498 47.05 18.0412 47.05 22.0832H49.05C49.05 16.9204 44.831 12.7498 39.6447 12.7498V14.7498ZM31.2395 21.0832C27.1415 21.0832 23.8342 17.7918 23.8342 13.7498H21.8342C21.8342 18.9126 26.0532 23.0832 31.2395 23.0832V21.0832ZM23.8342 13.7498C23.8342 9.70783 27.1415 6.4165 31.2395 6.4165V4.4165C26.0532 4.4165 21.8342 8.58709 21.8342 13.7498H23.8342ZM31.2395 6.4165C35.3374 6.4165 38.6447 9.70783 38.6447 13.7498H40.6447C40.6447 8.58709 36.4257 4.4165 31.2395 4.4165V6.4165Z" fill="black"/>
</svg>
