<svg width="60" height="60" viewBox="0 0 60 60" fill="none" xmlns="http://www.w3.org/2000/svg">
<path d="M52.1273 22.4224L38.3674 22.4224M38.3674 22.4224L38.3612 10.2635M38.3674 22.4224L54 6.78978M51.0911 47.5565C51.0911 47.5565 48.1113 50.4833 47.381 51.3413C46.1914 52.6108 44.7898 53.2102 42.9525 53.2102C42.7758 53.2102 42.5873 53.2102 42.4107 53.1985C38.9126 52.9751 35.6618 51.6117 33.2238 50.448C26.5574 47.2274 20.7037 42.6551 15.8394 36.8604C11.8231 32.0295 9.13766 27.563 7.35917 22.7674C6.26381 19.8406 5.86336 17.5604 6.04003 15.4094C6.15781 14.0342 6.68782 12.894 7.6654 11.9184L11.6817 7.91034C12.2588 7.36965 12.8713 7.0758 13.472 7.0758C14.214 7.0758 14.8147 7.52245 15.1916 7.89858C15.2034 7.91034 15.2151 7.92209 15.2269 7.93384C15.9454 8.60382 16.6285 9.29731 17.347 10.0378C17.7121 10.4139 18.089 10.7901 18.4659 11.1779L21.6813 14.3868C22.9298 15.6327 22.9298 16.7846 21.6813 18.0305C21.3397 18.3714 21.0099 18.7122 20.6684 19.0414C19.679 20.0522 20.4562 19.2766 19.4315 20.1934C19.408 20.2169 19.3844 20.2287 19.3726 20.2522C18.3597 21.263 18.5482 22.2504 18.7602 22.9203C18.772 22.9556 18.7837 22.9909 18.7955 23.0261C19.6318 25.0478 20.8096 26.9519 22.5998 29.2205L22.6116 29.2322C25.8623 33.2286 29.2898 36.3434 33.0705 38.7294C33.5534 39.035 34.0481 39.2819 34.5192 39.517C34.9432 39.7285 35.3437 39.9284 35.6852 40.1399C35.7324 40.1634 35.7795 40.1987 35.8266 40.2222C36.227 40.422 36.6039 40.5161 36.9926 40.5161C37.9702 40.5161 38.5826 39.9048 38.7829 39.705L41.0915 37.4011C41.492 37.0015 42.128 36.5195 42.87 36.5195C43.6003 36.5195 44.2009 36.978 44.5661 37.3776C44.5778 37.3893 44.5778 37.3893 44.5896 37.4011L51.0793 43.8775C52.2925 45.0765 51.0911 47.5565 51.0911 47.5565Z" stroke="black" stroke-width="2" stroke-linecap="round" stroke-linejoin="round"/>
</svg>
