<svg width="66" height="66" viewBox="0 0 66 66" fill="none" xmlns="http://www.w3.org/2000/svg">
<path d="M59.1252 45.5643V46.3982C59.5857 46.3982 59.9591 46.0248 59.9591 45.5643H59.1252ZM59.1252 31.2548H59.9591C59.9591 30.7943 59.5857 30.4209 59.1252 30.4209V31.2548ZM20.9493 18.8456C20.5619 19.0947 20.4498 19.6106 20.6988 19.998C20.9479 20.3854 21.4638 20.4976 21.8512 20.2485L20.9493 18.8456ZM39.6123 7.83936L40.2705 7.3274C40.0055 6.98672 39.5244 6.90452 39.1614 7.13791L39.6123 7.83936ZM48.0601 20.059C48.3428 20.4226 48.8667 20.4881 49.2303 20.2053C49.5938 19.9226 49.6593 19.3987 49.3765 19.0351L48.0601 20.059ZM59.1252 44.7304H50.6696V46.3982H59.1252V44.7304ZM50.6696 32.0887H59.1252V30.4209H50.6696V32.0887ZM58.2913 31.2548V45.5643H59.9591V31.2548H58.2913ZM44.3487 38.4095C44.3487 34.9186 47.1787 32.0887 50.6696 32.0887V30.4209C46.2576 30.4209 42.681 33.9976 42.681 38.4095H44.3487ZM50.6696 44.7304C47.1787 44.7304 44.3487 41.9004 44.3487 38.4095H42.681C42.681 42.8215 46.2576 46.3982 50.6696 46.3982V44.7304ZM21.8512 20.2485L40.0632 8.5408L39.1614 7.13791L20.9493 18.8456L21.8512 20.2485ZM38.9541 8.35131L48.0601 20.059L49.3765 19.0351L40.2705 7.3274L38.9541 8.35131ZM9.69254 20.381H53.9217V18.7132H9.69254V20.381ZM53.9217 57.739H9.69254V59.4067H53.9217V57.739ZM7.9247 55.9711V22.1488H6.25694V55.9711H7.9247ZM9.69254 57.739C8.71619 57.739 7.9247 56.9475 7.9247 55.9711H6.25694C6.25694 57.8686 7.79511 59.4067 9.69254 59.4067V57.739ZM55.6896 55.9711C55.6896 56.9475 54.8981 57.739 53.9217 57.739V59.4067C55.8192 59.4067 57.3573 57.8686 57.3573 55.9711H55.6896ZM53.9217 20.381C54.8981 20.381 55.6896 21.1725 55.6896 22.1488H57.3573C57.3573 20.2514 55.8192 18.7132 53.9217 18.7132V20.381ZM9.69254 18.7132C7.79511 18.7132 6.25694 20.2514 6.25694 22.1488H7.9247C7.9247 21.1725 8.71619 20.381 9.69254 20.381V18.7132ZM55.6896 47.5156V55.9711H57.3573V47.5156H55.6896ZM55.6896 22.1488V28.9783H57.3573V22.1488H55.6896Z" fill="black"/>
</svg>
