<svg width="64" height="64" viewBox="0 0 64 64" fill="none" xmlns="http://www.w3.org/2000/svg">
<path d="M22.4004 41.6L41.6004 22.4M23.8775 23.8649L23.8397 23.8268M40.1722 40.3272L40.1344 40.2891M25.5363 10.7808L20.3687 9.64849C19.543 9.46757 18.7154 9.94537 18.4593 10.7509L16.8561 15.7923C16.6952 16.2983 16.2987 16.6948 15.7927 16.8557L10.7512 18.4589C9.94573 18.715 9.46794 19.5426 9.64886 20.3683L10.7812 25.5359C10.8948 26.0546 10.7497 26.5961 10.392 26.9885L6.82753 30.8976C6.25801 31.5222 6.25801 32.4778 6.82753 33.1024L10.392 37.0115C10.7497 37.4039 10.8948 37.9455 10.7812 38.4641L9.64886 43.6318C9.46794 44.4574 9.94573 45.285 10.7512 45.5411L15.7927 47.1443C16.2987 47.3052 16.6952 47.7017 16.8561 48.2077L18.4593 53.2492C18.7154 54.0547 19.543 54.5325 20.3687 54.3515L25.5363 53.2192C26.0549 53.1056 26.5965 53.2507 26.9889 53.6084L30.898 57.1729C31.5226 57.7424 32.4782 57.7424 33.1028 57.1729L37.0119 53.6084C37.4043 53.2507 37.9458 53.1056 38.4645 53.2192L43.6321 54.3515C44.4578 54.5325 45.2854 54.0547 45.5415 53.2492L47.1447 48.2077C47.3056 47.7017 47.7021 47.3052 48.2081 47.1443L53.2495 45.5411C54.055 45.285 54.5328 44.4574 54.3519 43.6318L53.2196 38.4641C53.1059 37.9455 53.2511 37.4039 53.6088 37.0115L57.1732 33.1024C57.7428 32.4778 57.7428 31.5222 57.1732 30.8976L53.6088 26.9885C53.2511 26.5961 53.1059 26.0546 53.2196 25.5359L54.3519 20.3683C54.5328 19.5426 54.055 18.715 53.2495 18.4589L48.2081 16.8557C47.7021 16.6948 47.3056 16.2983 47.1447 15.7923L45.5415 10.7509C45.2854 9.94537 44.4578 9.46757 43.6321 9.64849L38.4645 10.7808C37.9458 10.8945 37.4043 10.7494 37.0119 10.3916L33.1028 6.82716C32.4782 6.25765 31.5226 6.25765 30.898 6.82716L26.9889 10.3916C26.5965 10.7494 26.0549 10.8945 25.5363 10.7808Z" stroke="#00166A" stroke-width="4" stroke-linecap="round"/>
</svg>
