<svg width="64" height="64" viewBox="0 0 64 64" fill="none" xmlns="http://www.w3.org/2000/svg">
<path d="M32.4658 57.7432V20.5068M28.1325 18.273C28.5935 18.3764 29.0793 18.2496 29.4112 17.9177C29.7431 17.5858 29.8697 17.0999 29.7664 16.6391C29.3527 14.949 27.8286 9.28967 26.2636 7.72469C24.3138 5.77493 21.1405 5.76681 19.2004 7.70693C17.2604 9.64691 17.2683 12.8202 19.2182 14.7701C20.8087 16.3607 26.4425 17.8593 28.1325 18.273ZM32.8647 16.6389C32.7613 17.0999 32.8881 17.5857 33.22 17.9176C33.5519 18.2495 34.0378 18.3761 34.4986 18.2728C36.1887 17.8591 41.848 16.335 43.413 14.77C45.3628 12.8202 45.3709 9.64691 43.4308 7.7068C41.4908 5.76682 38.3174 5.77466 36.3675 7.72456C34.777 9.31515 33.2784 14.9489 32.8647 16.6389ZM8.26221 33.5395H55.7386C56.7668 33.5395 57.6004 32.706 57.6004 31.6777V22.3686C57.6004 21.3404 56.7668 20.5068 55.7386 20.5068H8.26221C7.23395 20.5068 6.40039 21.3404 6.40039 22.3686V31.6777C6.40039 32.706 7.23396 33.5395 8.26221 33.5395ZM52.9458 33.5395V55.8813C52.9458 56.9096 52.1123 57.7432 51.084 57.7432H12.9168C11.8885 57.7432 11.0549 56.9096 11.0549 55.8813V33.5395H52.9458Z" stroke="#00166A" stroke-width="4" stroke-linecap="round" stroke-linejoin="round"/>
</svg>
