<svg width="152" height="101" viewBox="0 0 152 101" fill="none" xmlns="http://www.w3.org/2000/svg">
<g clip-path="url(#clip0_221_1383)">
<path d="M0.5 12.625C0.5 5.65241 6.13375 0 13.0833 0H138.917C145.866 0 151.5 5.65241 151.5 12.625V88.375C151.5 95.3476 145.866 101 138.917 101H13.0833C6.13375 101 0.5 95.3476 0.5 88.375V12.625Z" fill="#18191B"/>
<path d="M72.5939 53.8932V68.4869H67.9473V32.4468H80.2709C81.742 32.4161 83.2045 32.6761 84.5742 33.2116C85.9438 33.7471 87.1935 34.5476 88.251 35.5668C89.3192 36.5242 90.1694 37.6983 90.7444 39.0102C91.3193 40.3221 91.6058 41.7414 91.5845 43.1728C91.6151 44.6119 91.333 46.0405 90.7576 47.3608C90.1823 48.6811 89.3272 49.8618 88.251 50.822C86.0961 52.8694 83.436 53.8922 80.2709 53.8903H72.5939V53.8932ZM72.5939 36.8838V49.4647H80.3864C81.2407 49.4899 82.0908 49.3372 82.8825 49.0164C83.6742 48.6955 84.3899 48.2135 84.984 47.6013C85.5749 47.0289 86.0446 46.3442 86.3654 45.5877C86.6861 44.8313 86.8514 44.0185 86.8514 43.1973C86.8514 42.3761 86.6861 41.5632 86.3654 40.8068C86.0446 40.0504 85.5749 39.3657 84.984 38.7933C84.3974 38.1681 83.6841 37.6743 82.8915 37.3447C82.0989 37.015 81.245 36.8569 80.3864 36.881H72.5939V36.8838Z" fill="#E4E5E7"/>
<path d="M102.291 43.0215C105.726 43.0215 108.437 43.9359 110.424 45.7648C112.412 47.5937 113.405 50.1013 113.403 53.2875V68.4851H108.958V65.0631H108.756C106.832 67.8812 104.273 69.2903 101.079 69.2903C98.3526 69.2903 96.0716 68.4851 94.2361 66.8748C93.3552 66.1357 92.6509 65.21 92.1746 64.1653C91.6983 63.1207 91.4619 61.9832 91.4827 60.836C91.4827 58.2843 92.4505 56.2551 94.3861 54.7483C96.3217 53.2414 98.9058 52.4861 102.138 52.4823C104.897 52.4823 107.17 52.9855 108.955 53.992V52.9338C108.96 52.1516 108.791 51.3782 108.459 50.6694C108.127 49.9606 107.641 49.3344 107.036 48.836C105.807 47.7314 104.206 47.1287 102.551 47.148C99.9554 47.148 97.9014 48.2388 96.3891 50.4205L92.2966 47.8525C94.5478 44.6318 97.8793 43.0215 102.291 43.0215ZM96.2794 60.9366C96.2763 61.5258 96.4145 62.1073 96.6826 62.6325C96.9507 63.1577 97.3409 63.6115 97.8206 63.956C98.8483 64.7615 100.124 65.1882 101.431 65.1638C103.392 65.1605 105.271 64.3829 106.658 63.0013C108.197 61.5578 108.967 59.864 108.967 57.9201C107.518 56.7698 105.498 56.1947 102.906 56.1947C101.018 56.1947 99.4445 56.6481 98.1842 57.5549C96.9115 58.4751 96.2794 59.5937 96.2794 60.9366Z" fill="#E4E5E7"/>
<path d="M138.917 43.8291L123.401 79.3574H118.605L124.363 66.9261L114.16 43.8291H119.211L126.585 61.5429H126.686L133.858 43.8291H138.917Z" fill="#E4E5E7"/>
<path d="M53.8168 50.746C53.8186 49.3351 53.6988 47.9267 53.4589 46.5361H33.8623V54.5102H45.0864C44.8567 55.7838 44.3706 56.9979 43.6573 58.0792C42.944 59.1606 42.0184 60.0868 40.9361 60.8021V65.9782H47.6348C51.557 62.3751 53.8168 57.0465 53.8168 50.746Z" fill="#4285F4"/>
<path d="M33.8718 71C39.4207 71 44.0929 69.1371 47.5 65.9251L40.8715 60.6692C39.0266 61.9481 36.6506 62.6781 33.8718 62.6781C28.5085 62.6781 23.9562 58.9814 22.3284 54H15.5V59.4165C17.2114 62.8985 19.8357 65.8256 23.0799 67.8711C26.324 69.9165 30.0604 70.9998 33.8718 71Z" fill="#34A853"/>
<path d="M22.1964 54.2409C21.3267 51.6703 21.3267 48.8864 22.1964 46.3157V40.9814H15.2957C13.8407 43.8661 13.083 47.0499 13.083 50.2783C13.083 53.5068 13.8407 56.6905 15.2957 59.5752L22.1964 54.2409Z" fill="#FBBC04"/>
<path d="M33.8622 37.7682C36.8256 37.7199 39.6891 38.8355 41.8336 40.8738L47.7646 34.9644C44.0038 31.4449 39.0215 29.5126 33.8622 29.5726C30.0105 29.5728 26.2345 30.6397 22.956 32.6541C19.6775 34.6685 17.0254 37.5511 15.2959 40.9802L22.1966 46.3145C23.8417 41.4087 28.4421 37.7682 33.8622 37.7682Z" fill="#EA4335"/>
</g>
<defs>
<clipPath id="clip0_221_1383">
<rect width="151" height="101" fill="white" transform="translate(0.5)"/>
</clipPath>
</defs>
</svg>
