  <svg width="51" height="57" viewBox="0 0 51 57" fill="none" xmlns="http://www.w3.org/2000/svg">
        <mask id="path-1-inside-1_1_3" fill="white">
          <path d="M14.4698 50.467C13.9454 50.6403 13.6608 51.2059 13.8341 51.7303C14.0074 52.2547 14.573 52.5393 15.0973 52.366L14.4698 50.467ZM27.3914 42.0832C26.8392 42.0832 26.3914 42.5309 26.3914 43.0832C26.3914 43.6355 26.8392 44.0832 27.3914 44.0832V42.0832ZM31.9407 42.373C31.5485 42.7619 31.5458 43.395 31.9346 43.7872C32.3234 44.1794 32.9566 44.1822 33.3488 43.7933L31.9407 42.373ZM15.0973 52.366C15.6919 52.1695 16.5799 52.1201 17.7665 52.204C18.9328 52.2865 20.2708 52.4868 21.7216 52.7127C24.5649 53.1555 27.8566 53.7049 30.6334 53.4541L30.4535 51.4622C27.977 51.6859 24.9647 51.1936 22.0294 50.7365C20.5908 50.5125 19.1709 50.2984 17.9076 50.209C16.6645 50.1211 15.4511 50.1427 14.4698 50.467L15.0973 52.366ZM30.6334 53.4541C34.7635 53.0811 36.4817 53.1877 40.4349 51.275L39.5638 49.4747C35.9961 51.2008 34.6575 51.0825 30.4535 51.4622L30.6334 53.4541ZM40.4349 51.275C43.9295 49.5842 47.5372 45.6396 49.8091 42.8585L48.2602 41.5932C45.9786 44.3862 42.6161 47.9979 39.5638 49.4747L40.4349 51.275ZM42.1509 36.4168L37.9897 40.5424L39.3978 41.9627L43.5591 37.8371L42.1509 36.4168ZM34.2362 42.0832H27.3914V44.0832H34.2362V42.0832ZM37.9897 40.5424C36.9957 41.528 35.6456 42.0832 34.2362 42.0832V44.0832C36.1706 44.0832 38.0274 43.3214 39.3978 41.9627L37.9897 40.5424ZM48.6253 35.7804C46.5907 34.4356 43.8822 34.7004 42.1509 36.4168L43.5591 37.8371C44.6161 36.7891 46.2762 36.6251 47.5225 37.4488L48.6253 35.7804ZM49.8091 42.8585C51.6647 40.587 50.9939 37.3459 48.6253 35.7804L47.5225 37.4488C48.9873 38.417 49.3042 40.3152 48.2602 41.5932L49.8091 42.8585ZM3.2263 33.6665H11.6316V31.6665H3.2263V33.6665ZM12.7329 34.7498V53.4998H14.7329V34.7498H12.7329ZM11.6316 54.5832H3.2263V56.5832H11.6316V54.5832ZM2.125 53.4998V34.7498H0.125V53.4998H2.125ZM3.2263 54.5832C2.60995 54.5832 2.125 54.0901 2.125 53.4998H0.125C0.125 55.2108 1.52163 56.5832 3.2263 56.5832V54.5832ZM12.7329 53.4998C12.7329 54.0901 12.2479 54.5832 11.6316 54.5832V56.5832C13.3363 56.5832 14.7329 55.2108 14.7329 53.4998H12.7329ZM11.6316 33.6665C12.2479 33.6665 12.7329 34.1596 12.7329 34.7498H14.7329C14.7329 33.0389 13.3363 31.6665 11.6316 31.6665V33.6665ZM3.2263 31.6665C1.52163 31.6665 0.125 33.0389 0.125 34.7498H2.125C2.125 34.1596 2.60996 33.6665 3.2263 33.6665V31.6665ZM15.2277 37.7291L18.4259 36.1437L17.5376 34.3518L14.3394 35.9372L15.2277 37.7291ZM24.5599 34.7082H25.4216V32.7082H24.5599V34.7082ZM29.0308 35.1874L33.4476 36.3816L33.9697 34.451L29.5529 33.2567L29.0308 35.1874ZM34.404 39.9308L31.9407 42.373L33.3488 43.7933L35.8122 41.351L34.404 39.9308ZM33.4476 36.3816C35.0468 36.814 35.562 38.7827 34.404 39.9308L35.8122 41.351C38.0769 39.1057 37.0403 35.2812 33.9697 34.451L33.4476 36.3816ZM25.4216 34.7082C26.6409 34.7082 27.8547 34.8693 29.0308 35.1874L29.5529 33.2567C28.2064 32.8926 26.8171 32.7082 25.4216 32.7082V34.7082ZM18.4259 36.1437C20.33 35.1998 22.4302 34.7082 24.5599 34.7082V32.7082C22.1225 32.7082 19.7183 33.2708 17.5376 34.3518L18.4259 36.1437ZM40.05 18.0832C40.05 22.1252 36.7427 25.4165 32.6447 25.4165V27.4165C37.831 27.4165 42.05 23.2459 42.05 18.0832H40.05ZM32.6447 25.4165C28.5468 25.4165 25.2395 22.1252 25.2395 18.0832H23.2395C23.2395 23.2459 27.4585 27.4165 32.6447 27.4165V25.4165ZM25.2395 18.0832C25.2395 14.0412 28.5468 10.7498 32.6447 10.7498V8.7498C27.4585 8.7498 23.2395 12.9204 23.2395 18.0832H25.2395ZM32.6447 10.7498C36.7427 10.7498 40.05 14.0412 40.05 18.0832H42.05C42.05 12.9204 37.831 8.7498 32.6447 8.7498V10.7498ZM24.2395 17.0832C20.1415 17.0832 16.8342 13.7918 16.8342 9.7498H14.8342C14.8342 14.9126 19.0532 19.0832 24.2395 19.0832V17.0832ZM16.8342 9.7498C16.8342 5.70783 20.1415 2.4165 24.2395 2.4165V0.416504C19.0532 0.416504 14.8342 4.58709 14.8342 9.7498H16.8342ZM24.2395 2.4165C28.3374 2.4165 31.6447 5.70783 31.6447 9.7498H33.6447C33.6447 4.58709 29.4257 0.416504 24.2395 0.416504V2.4165Z" />
        </mask>
        <path d="M30.4535 51.4622L30.9515 51.4172L29.9555 51.5072L30.4535 51.4622ZM40.4349 51.275L39.9848 51.4928L40.885 51.0572L40.4349 51.275ZM48.2602 41.5932L48.5765 41.206L47.9439 41.9804L48.2602 41.5932ZM43.5591 37.8371L43.2041 38.1892L43.9142 37.4851L43.5591 37.8371ZM39.3978 41.9627L39.0428 42.3148L39.7529 41.6107L39.3978 41.9627ZM18.4259 36.1437L17.9779 36.3658L18.8739 35.9216L18.4259 36.1437ZM29.5529 33.2567L30.0356 33.3872L29.0702 33.1262L29.5529 33.2567ZM33.4476 36.3816L32.9649 36.2511L33.9303 36.5122L33.4476 36.3816ZM15.5721 52.2091L14.9446 50.3101L13.995 50.6239L14.6225 52.5229L15.5721 52.2091ZM31.0414 52.4133L30.9515 51.4173L29.9555 51.5072L30.0454 52.5032L31.0414 52.4133ZM39.5492 50.5926L39.9848 51.4928L40.885 51.0572L40.4494 50.157L39.5492 50.5926ZM49.351 41.8386L48.5765 41.206L47.9439 41.9804L48.7184 42.613L49.351 41.8386ZM42.4999 37.4791L43.2041 38.1892L43.9142 37.4851L43.21 36.775L42.4999 37.4791ZM38.3386 41.6047L39.0428 42.3148L39.7528 41.6107L39.0487 40.9006L38.3386 41.6047ZM27.8914 44.0832V42.0832H26.8914V44.0832H27.8914ZM47.6568 36.3389L47.1054 37.1731L47.9396 37.7245L48.491 36.8903L47.6568 36.3389ZM17.5337 35.4699L17.9779 36.3658L18.8739 35.9216L18.4297 35.0257L17.5337 35.4699ZM29.7746 34.3525L30.0356 33.3872L29.0702 33.1262L28.8092 34.0915L29.7746 34.3525ZM33.226 35.2858L32.9649 36.2511L33.9303 36.5122L34.1914 35.5469L33.226 35.2858ZM35.4632 40.2889L34.759 39.5788L34.0489 40.2829L34.7531 40.993L35.4632 40.2889ZM33.7039 43.4413L32.2958 42.021L31.5856 42.725L32.9937 44.1453L33.7039 43.4413ZM31.1314 53.4091L30.9515 51.4172L29.9555 51.5072L30.1354 53.4991L31.1314 53.4091ZM40.885 51.0572L40.0139 49.2569L39.1137 49.6925L39.9848 51.4928L40.885 51.0572ZM50.1254 42.4713L48.5765 41.206L47.9439 41.9804L49.4928 43.2457L50.1254 42.4713ZM37.6346 40.8944L39.0427 42.3147L39.7529 41.6107L38.3448 40.1904L37.6346 40.8944ZM43.9142 37.4851L42.506 36.0648L41.7958 36.7688L43.204 38.1891L43.9142 37.4851ZM34.7362 44.0832V42.0832H33.7362V44.0832H34.7362ZM47.9396 37.7245L49.0424 36.0561L48.2082 35.5047L47.1054 37.1731L47.9396 37.7245ZM12.1316 33.6665V31.6665H11.1316V33.6665H12.1316ZM2.7263 31.6665V33.6665H3.7263V31.6665H2.7263ZM12.7329 53.9998H14.7329V52.9998H12.7329V53.9998ZM14.7329 34.2498H12.7329V35.2498H14.7329V34.2498ZM2.7263 54.5832V56.5832H3.7263V54.5832H2.7263ZM12.1316 56.5832V54.5832H11.1316V56.5832H12.1316ZM2.125 34.2498H0.125V35.2498H2.125V34.2498ZM0.125 53.9998H2.125V52.9998H0.125V53.9998ZM18.8739 35.9216L17.9856 34.1297L17.0896 34.5739L17.9779 36.3658L18.8739 35.9216ZM25.9216 34.7082V32.7082H24.9216V34.7082H25.9216ZM24.0599 32.7082V34.7082H25.0599V32.7082H24.0599ZM33.9303 36.5121L34.4524 34.5815L33.487 34.3205L32.9649 36.2511L33.9303 36.5121ZM29.0702 33.1262L28.5481 35.0569L29.5135 35.3179L30.0356 33.3872L29.0702 33.1262ZM36.1672 40.999L34.759 39.5788L34.0489 40.2829L35.4571 41.7031L36.1672 40.999ZM32.1447 25.4165V27.4165H33.1447V25.4165H32.1447ZM42.05 17.5832H40.05V18.5832H42.05V17.5832ZM25.2395 17.5832H23.2395V18.5832H25.2395V17.5832ZM33.1447 10.7498V8.7498H32.1447V10.7498H33.1447ZM16.8342 9.2498H14.8342V10.2498H16.8342V9.2498ZM24.7395 2.4165V0.416504H23.7395V2.4165H24.7395ZM14.4698 50.467L14.7836 51.4165L14.7836 51.4165L14.4698 50.467ZM15.0973 52.366L14.7835 51.4165L14.7835 51.4165L15.0973 52.366ZM30.4535 51.4622L30.3635 50.4663L30.3635 50.4663L30.4535 51.4622ZM40.4349 51.275L39.9994 50.3748L39.9994 50.3748L40.4349 51.275ZM48.2602 41.5932L47.4858 40.9606L47.4858 40.9606L48.2602 41.5932ZM43.5591 37.8371L44.2632 38.5473L44.2632 38.5472L43.5591 37.8371ZM39.3978 41.9627L38.6937 41.2526L38.6937 41.2526L39.3978 41.9627ZM47.5225 37.4488L48.0739 36.6146L48.0739 36.6145L47.5225 37.4488ZM18.4259 36.1437L18.87 37.0397L18.87 37.0397L18.4259 36.1437ZM29.5529 33.2567L29.2919 34.222L29.2919 34.222L29.5529 33.2567ZM33.4476 36.3816L33.7086 35.4163L33.7086 35.4163L33.4476 36.3816ZM34.404 39.9308L35.1081 40.6409L35.1081 40.6409L34.404 39.9308ZM31.9407 42.373L31.2366 41.6629L31.2366 41.6629L31.9407 42.373ZM33.3488 43.7933L32.6447 43.0832L32.6447 43.0832L33.3488 43.7933ZM17.7665 52.204L17.8371 51.2065L17.837 51.2065L17.7665 52.204ZM21.7216 52.7127L21.8755 51.7246L21.8755 51.7246L21.7216 52.7127ZM30.6334 53.4541L30.5435 52.4582L30.5434 52.4582L30.6334 53.4541ZM22.0294 50.7365L22.1833 49.7484L22.1833 49.7484L22.0294 50.7365ZM17.9076 50.209L17.9782 49.2115L17.9781 49.2115L17.9076 50.209ZM39.5638 49.4747L39.9993 50.3749L39.9993 50.3749L39.5638 49.4747ZM49.8091 42.8585L50.5835 43.4912L50.5835 43.4912L49.8091 42.8585ZM42.1509 36.4168L41.4469 35.7066L41.4468 35.7067L42.1509 36.4168ZM37.9897 40.5424L37.2856 39.8323L37.2856 39.8323L37.9897 40.5424ZM48.6253 35.7804L48.0739 36.6146L48.0739 36.6147L48.6253 35.7804ZM15.2277 37.7291L14.3317 38.1733L14.7759 39.0692L15.6718 38.6251L15.2277 37.7291ZM17.5376 34.3518L17.0935 33.4558L17.0935 33.4558L17.5376 34.3518ZM14.3394 35.9372L13.8953 35.0412L12.9993 35.4854L13.4434 36.3814L14.3394 35.9372ZM29.0308 35.1874L28.7697 36.1527L28.7698 36.1527L29.0308 35.1874ZM33.9697 34.451L33.7087 35.4163L33.7087 35.4163L33.9697 34.451ZM35.8122 41.351L35.1081 40.6409L35.1081 40.6409L35.8122 41.351ZM24.2395 17.0832H25.2395V16.0832H24.2395V17.0832ZM24.2395 19.0832V20.0832H25.2395V19.0832H24.2395ZM31.6447 9.7498H30.6447V10.7498H31.6447V9.7498ZM33.6447 9.7498V10.7498H34.6447V9.7498H33.6447ZM14.156 49.5175C13.1072 49.8641 12.538 50.9953 12.8846 52.0441L14.7836 51.4165L14.7836 51.4165L14.156 49.5175ZM12.8846 52.0441C13.2312 53.0928 14.3624 53.6621 15.4111 53.3155L14.7835 51.4165L14.7836 51.4165L12.8846 52.0441ZM27.3914 41.0832C26.287 41.0832 25.3914 41.9786 25.3914 43.0832H27.3914V41.0832ZM25.3914 43.0832C25.3914 44.1879 26.287 45.0832 27.3914 45.0832V43.0832H25.3914ZM31.2366 41.6629C30.4523 42.4406 30.4468 43.7068 31.2244 44.4912L32.6448 43.0832L32.6448 43.0831L31.2366 41.6629ZM31.2244 44.4912C32.002 45.2756 33.2684 45.2813 34.0529 44.5034L32.6447 43.0832L32.6448 43.0832L31.2244 44.4912ZM15.4111 53.3155C15.812 53.183 16.5369 53.1196 17.696 53.2015L17.837 51.2065C16.6229 51.1206 15.5718 51.156 14.7835 51.4165L15.4111 53.3155ZM17.6959 53.2015C18.8137 53.2806 20.1107 53.4739 21.5677 53.7008L21.8755 51.7246C20.4309 51.4997 19.0519 51.2924 17.8371 51.2065L17.6959 53.2015ZM21.5677 53.7008C24.3657 54.1365 27.7966 54.7144 30.7234 54.4501L30.5434 52.4582C27.9166 52.6954 24.7641 52.1745 21.8755 51.7246L21.5677 53.7008ZM30.3635 50.4663C28.0374 50.6764 25.1654 50.2128 22.1833 49.7484L21.8755 51.7246C24.764 52.1744 27.9166 52.6954 30.5435 52.4581L30.3635 50.4663ZM22.1833 49.7484C20.7506 49.5253 19.29 49.3043 17.9782 49.2115L17.837 51.2065C19.0518 51.2925 20.431 51.4997 21.8755 51.7246L22.1833 49.7484ZM17.9781 49.2115C16.7062 49.1216 15.3304 49.1294 14.156 49.5175L14.7836 51.4165C15.5718 51.156 16.6228 51.1206 17.8371 51.2065L17.9781 49.2115ZM30.7233 54.4501C34.8174 54.0803 36.7248 54.181 40.8704 52.1752L39.9994 50.3748C36.2386 52.1944 34.7096 52.0819 30.5435 52.4582L30.7233 54.4501ZM39.1283 48.5745C37.4055 49.408 36.2668 49.7751 35.0712 49.989C33.8221 50.2124 32.525 50.271 30.3635 50.4663L30.5435 52.4582C32.586 52.2737 34.0602 52.2016 35.4234 51.9577C36.8399 51.7043 38.1544 51.2675 39.9993 50.3749L39.1283 48.5745ZM40.8704 52.1752C44.586 50.3775 48.3162 46.2666 50.5835 43.4912L49.0347 42.2259C46.7582 45.0126 43.273 48.791 39.9994 50.3748L40.8704 52.1752ZM47.4858 40.9606C46.3612 42.3372 44.9788 43.9048 43.5111 45.3036C42.033 46.7124 40.5173 47.9025 39.1283 48.5745L39.9993 50.3749C41.6626 49.5701 43.3543 48.216 44.8909 46.7514C46.4379 45.277 47.8776 43.6422 49.0346 42.2258L47.4858 40.9606ZM41.4468 35.7067L37.2856 39.8323L38.6938 41.2525L42.855 37.1269L41.4468 35.7067ZM40.1019 42.6729L44.2632 38.5473L42.855 37.127L38.6937 41.2526L40.1019 42.6729ZM34.2362 41.0832H27.3914V43.0832H34.2362V41.0832ZM27.3914 45.0832H34.2362V43.0832H27.3914V45.0832ZM37.2856 39.8323C36.4798 40.6313 35.3831 41.0832 34.2362 41.0832V43.0832C35.9081 43.0832 37.5116 42.4247 38.6938 41.2525L37.2856 39.8323ZM34.2362 45.0832C36.4331 45.0832 38.5433 44.2181 40.1019 42.6728L38.6937 41.2526C37.5115 42.4247 35.9081 43.0832 34.2362 43.0832V45.0832ZM49.1767 34.9462C46.748 33.3409 43.5153 33.656 41.4469 35.7066L42.8549 37.127C44.2491 35.7448 46.4334 35.5303 48.0739 36.6146L49.1767 34.9462ZM44.2632 38.5472C44.9831 37.8335 46.119 37.7199 46.9711 38.2831L48.0739 36.6145C46.4334 35.5303 44.2491 35.7448 42.855 37.127L44.2632 38.5472ZM50.5835 43.4912C52.8472 40.7201 51.9941 36.8083 49.1767 34.9462L48.0739 36.6147C49.9937 37.8835 50.4822 40.4539 49.0347 42.2259L50.5835 43.4912ZM46.9711 38.283C47.9786 38.949 48.1279 40.1745 47.4858 40.9606L49.0346 42.2258C50.4805 40.4559 49.996 37.885 48.0739 36.6146L46.9711 38.283ZM3.2263 34.6665H11.6316V32.6665H3.2263V34.6665ZM11.6316 30.6665H3.2263V32.6665H11.6316V30.6665ZM11.7329 34.7498V53.4998H13.7329V34.7498H11.7329ZM15.7329 53.4998V34.7498H13.7329V53.4998H15.7329ZM11.6316 53.5832H3.2263V55.5832H11.6316V53.5832ZM3.2263 57.5832H11.6316V55.5832H3.2263V57.5832ZM3.125 53.4998V34.7498H1.125V53.4998H3.125ZM-0.875 34.7498V53.4998H1.125V34.7498H-0.875ZM3.2263 53.5832C3.15641 53.5832 3.125 53.532 3.125 53.4998H1.125C1.125 54.6482 2.06349 55.5832 3.2263 55.5832V53.5832ZM-0.875 53.4998C-0.875 55.7719 0.97824 57.5832 3.2263 57.5832V55.5832C2.06502 55.5832 1.125 54.6497 1.125 53.4998H-0.875ZM11.7329 53.4998C11.7329 53.532 11.7015 53.5832 11.6316 53.5832V55.5832C12.7943 55.5832 13.7329 54.6482 13.7329 53.4998H11.7329ZM11.6316 57.5832C13.8797 57.5832 15.7329 55.7719 15.7329 53.4998H13.7329C13.7329 54.6497 12.7929 55.5832 11.6316 55.5832V57.5832ZM11.6316 34.6665C11.7015 34.6665 11.7329 34.7178 11.7329 34.7498H13.7329C13.7329 33.6014 12.7943 32.6665 11.6316 32.6665V34.6665ZM15.7329 34.7498C15.7329 32.4778 13.8797 30.6665 11.6316 30.6665V32.6665C12.7929 32.6665 13.7329 33.6001 13.7329 34.7498H15.7329ZM3.2263 30.6665C0.978259 30.6665 -0.875 32.4777 -0.875 34.7498H1.125C1.125 33.6001 2.065 32.6665 3.2263 32.6665V30.6665ZM3.125 34.7498C3.125 34.7178 3.15636 34.6665 3.2263 34.6665V32.6665C2.06356 32.6665 1.125 33.6015 1.125 34.7498H3.125ZM15.6718 38.6251L18.87 37.0397L17.9818 35.2477L14.7836 36.8331L15.6718 38.6251ZM17.0935 33.4558L13.8953 35.0412L14.7835 36.8332L17.9817 35.2478L17.0935 33.4558ZM13.4434 36.3814L14.3317 38.1733L16.1237 37.285L15.2354 35.4931L13.4434 36.3814ZM24.5599 35.7082H25.4216V33.7082H24.5599V35.7082ZM25.4216 31.7082H24.5599V33.7082H25.4216V31.7082ZM28.7698 36.1527L33.1866 37.3469L33.7086 35.4163L29.2918 34.2221L28.7698 36.1527ZM34.2307 33.4857L29.8139 32.2914L29.2919 34.222L33.7087 35.4163L34.2307 33.4857ZM33.6999 39.2207L31.2366 41.6629L32.6448 43.0831L35.1081 40.6409L33.6999 39.2207ZM34.0529 44.5034L36.5163 42.0611L35.1081 40.6409L32.6447 43.0832L34.0529 44.5034ZM33.1866 37.3469C34.0473 37.5796 34.3066 38.6192 33.6999 39.2207L35.1081 40.6409C36.8174 38.9463 36.0463 36.0484 33.7086 35.4163L33.1866 37.3469ZM36.5163 42.0611C39.3354 39.2662 38.0356 34.5144 34.2307 33.4857L33.7087 35.4163C36.045 36.048 36.8184 38.9452 35.1081 40.6409L36.5163 42.0611ZM25.4216 35.7082C26.5528 35.7082 27.6788 35.8577 28.7697 36.1527L29.2919 34.2221C28.0306 33.8809 26.729 33.7082 25.4216 33.7082V35.7082ZM29.8139 32.2914C28.3823 31.9042 26.9052 31.7082 25.4216 31.7082V33.7082C26.729 33.7082 28.0305 33.881 29.2919 34.222L29.8139 32.2914ZM18.87 37.0397C20.6358 36.1643 22.584 35.7082 24.5599 35.7082V33.7082C22.2764 33.7082 20.0242 34.2353 17.9818 35.2477L18.87 37.0397ZM24.5599 31.7082C21.9687 31.7082 19.4125 32.3063 17.0935 33.4558L17.9817 35.2478C20.0241 34.2353 22.2763 33.7082 24.5599 33.7082V31.7082ZM39.05 18.0832C39.05 21.5652 36.1982 24.4165 32.6447 24.4165V26.4165C37.2872 26.4165 41.05 22.6852 41.05 18.0832H39.05ZM32.6447 28.4165C38.3749 28.4165 43.05 23.8065 43.05 18.0832H41.05C41.05 22.6853 37.2871 26.4165 32.6447 26.4165V28.4165ZM32.6447 24.4165C29.0913 24.4165 26.2395 21.5652 26.2395 18.0832H24.2395C24.2395 22.6852 28.0023 26.4165 32.6447 26.4165V24.4165ZM22.2395 18.0832C22.2395 23.8065 26.9146 28.4165 32.6447 28.4165V26.4165C28.0024 26.4165 24.2395 22.6853 24.2395 18.0832H22.2395ZM26.2395 18.0832C26.2395 14.6012 29.0913 11.7498 32.6447 11.7498V9.7498C28.0023 9.7498 24.2395 13.4812 24.2395 18.0832H26.2395ZM32.6447 7.7498C26.9146 7.7498 22.2395 12.3598 22.2395 18.0832H24.2395C24.2395 13.481 28.0024 9.7498 32.6447 9.7498V7.7498ZM32.6447 11.7498C36.1982 11.7498 39.05 14.6012 39.05 18.0832H41.05C41.05 13.4812 37.2872 9.7498 32.6447 9.7498V11.7498ZM43.05 18.0832C43.05 12.3598 38.3749 7.7498 32.6447 7.7498V9.7498C37.2871 9.7498 41.05 13.481 41.05 18.0832H43.05ZM24.2395 16.0832C20.686 16.0832 17.8342 13.2318 17.8342 9.7498H15.8342C15.8342 14.3518 19.597 18.0832 24.2395 18.0832V16.0832ZM13.8342 9.7498C13.8342 15.4732 18.5093 20.0832 24.2395 20.0832V18.0832C19.5971 18.0832 15.8342 14.352 15.8342 9.7498H13.8342ZM25.2395 19.0832V17.0832H23.2395V19.0832H25.2395ZM17.8342 9.7498C17.8342 6.26788 20.686 3.4165 24.2395 3.4165V1.4165C19.597 1.4165 15.8342 5.14779 15.8342 9.7498H17.8342ZM24.2395 -0.583496C18.5093 -0.583496 13.8342 4.02646 13.8342 9.7498H15.8342C15.8342 5.14773 19.5971 1.4165 24.2395 1.4165V-0.583496ZM24.2395 3.4165C27.7929 3.4165 30.6447 6.26787 30.6447 9.7498H32.6447C32.6447 5.1478 28.8819 1.4165 24.2395 1.4165V3.4165ZM31.6447 10.7498H33.6447V8.7498H31.6447V10.7498ZM34.6447 9.7498C34.6447 4.02646 29.9696 -0.583496 24.2395 -0.583496V1.4165C28.8818 1.4165 32.6447 5.14772 32.6447 9.7498H34.6447Z" fill="black" mask="url(#path-1-inside-1_1_3)" className='fill' />
      </svg>