<svg width="44" height="44" viewBox="0 0 44 44" fill="none" xmlns="http://www.w3.org/2000/svg">
<path d="M22 22V20.5C21.1716 20.5 20.5 21.1716 20.5 22H22ZM22.1461 22H23.6461C23.6461 21.1716 22.9745 20.5 22.1461 20.5V22ZM22.1461 22.1321V23.6321C22.9745 23.6321 23.6461 22.9606 23.6461 22.1321H22.1461ZM22 22.1321H20.5C20.5 22.9606 21.1716 23.6321 22 23.6321V22.1321ZM37 22C37 30.2843 30.2843 37 22 37V40C31.9411 40 40 31.9411 40 22H37ZM22 37C13.7157 37 7 30.2843 7 22H4C4 31.9411 12.0589 40 22 40V37ZM7 22C7 13.7157 13.7157 7 22 7V4C12.0589 4 4 12.0589 4 22H7ZM22 7C30.2843 7 37 13.7157 37 22H40C40 12.0589 31.9411 4 22 4V7ZM28.75 22C28.75 25.7279 25.7279 28.75 22 28.75V31.75C27.3848 31.75 31.75 27.3848 31.75 22H28.75ZM22 28.75C18.2721 28.75 15.25 25.7279 15.25 22H12.25C12.25 27.3848 16.6152 31.75 22 31.75V28.75ZM15.25 22C15.25 18.2721 18.2721 15.25 22 15.25V12.25C16.6152 12.25 12.25 16.6152 12.25 22H15.25ZM22 15.25C25.7279 15.25 28.75 18.2721 28.75 22H31.75C31.75 16.6152 27.3848 12.25 22 12.25V15.25ZM22 23.5H22.1461V20.5H22V23.5ZM20.6461 22V22.1321H23.6461V22H20.6461ZM22.1461 20.6321H22V23.6321H22.1461V20.6321ZM23.5 22.1321V22H20.5V22.1321H23.5Z" fill="black"/>
</svg>
