<?xml version="1.0" encoding="UTF-8"?>
<svg id="Layer_1" data-name="Layer 1" xmlns="http://www.w3.org/2000/svg" viewBox="0 0 395.89 448.28">
  <defs>
    <style>
      .cls-1 {
        letter-spacing: -.04em;
      }

      .cls-2 {
        letter-spacing: -.01em;
      }

      .cls-3 {
        letter-spacing: -.04em;
      }

      .cls-4 {
        letter-spacing: 0em;
      }

      .cls-5 {
        letter-spacing: -.02em;
      }

      .cls-6 {
        letter-spacing: -.01em;
      }

      .cls-7 {
        letter-spacing: .08em;
      }

      .cls-8 {
        font-family: MadeynSans-Bold, MadeynSans;
        font-size: 42px;
        font-weight: 700;
      }

      .cls-8, .cls-9 {
        fill: #000a50;
      }

      .cls-10 {
        fill: #00166a;
      }

      .cls-10, .cls-9 {
        stroke-width: 0px;
      }

      .cls-11 {
        letter-spacing: -.02em;
      }
    </style>
  </defs>
  <polygon class="cls-9" points="298.49 374.97 275.79 374.97 204.84 210.65 227.54 210.65 298.49 374.97"/>
  <polygon class="cls-9" points="159.32 168.96 136.62 168.96 204.67 13.58 227.36 13.58 159.32 168.96"/>
  <polygon class="cls-9" points="185.69 301.7 162.99 301.7 123.13 211.62 145.82 211.62 185.69 301.7"/>
  <polygon class="cls-9" points="36.57 374.75 13.87 374.75 117.83 126.22 140.53 126.22 36.57 374.75"/>
  <polygon class="cls-10" points="231.36 13.58 383.77 374.97 301.49 374.97 230.54 210.65 188.69 301.7 148.82 211.62 82.85 374.75 40.57 374.75 144.53 126.22 163.32 168.96 231.36 13.58"/>
  <text class="cls-8" transform="translate(10.96 421)"><tspan class="cls-4" x="0" y="0">MISH</tspan><tspan class="cls-3" x="98.91" y="0">O</tspan><tspan class="cls-5" x="129.02" y="0">V</tspan><tspan class="cls-4" x="155.4" y="0"> </tspan><tspan class="cls-7" x="166.23" y="0"> </tspan><tspan class="cls-6" x="180.51" y="0">M</tspan><tspan class="cls-11" x="212.73" y="0">A</tspan><tspan class="cls-6" x="241.83" y="0">RKE</tspan><tspan class="cls-1" x="322.51" y="0">T</tspan><tspan class="cls-2" x="348.6" y="0">S</tspan></text>
</svg>