<svg width="534" height="520" viewBox="0 0 534 520" fill="none" xmlns="http://www.w3.org/2000/svg">
<path opacity="0.07" d="M475.494 262.733C475.494 358.884 419.237 404.296 349.878 364.28C280.519 324.264 224.331 213.816 224.331 117.736C224.331 21.5847 280.589 -23.8277 349.948 16.1885C419.307 56.2046 475.494 166.582 475.494 262.733Z" fill="url(#paint0_linear_46_1448)"/>
<path opacity="0.4" d="M292.919 60.55C276.385 51.019 260.061 46.1133 244.858 46.0432C229.655 45.9732 215.784 50.8087 204.084 60.2696C192.384 69.7306 183.136 83.5365 176.831 100.987C170.525 118.437 167.232 139.251 167.232 162.097L292.849 234.561L292.919 60.55Z" fill="url(#paint1_linear_46_1448)"/>
<path opacity="0.2" d="M195.256 137.989C195.256 172.399 202.612 210.313 216.414 246.895C230.216 283.477 249.832 317.116 272.742 343.536C295.651 369.957 320.943 387.967 345.323 395.326C369.704 402.684 392.053 399.04 409.638 384.814C427.223 370.587 439.133 346.48 444.037 315.574C448.871 284.598 446.419 248.156 436.891 210.873C427.363 173.59 411.319 137.078 390.652 106.032C369.984 74.9864 345.744 50.7384 320.873 36.4419V210.523L195.256 137.989Z" fill="url(#paint2_linear_46_1448)"/>
<path opacity="0.3" d="M230.636 120.329L22.209 0L22.279 108.695L212.351 218.442L230.776 245.704L230.636 120.329Z" fill="url(#paint3_linear_46_1448)"/>
<path d="M0 42.3288V12.8247L78.6769 58.2371V87.7411L0 42.3288Z" fill="#F2994A"/>
<path opacity="0.15" d="M177.04 115.844L131.361 89.4932V99.0242L177.04 125.375V115.844Z" fill="white"/>
<path opacity="0.15" d="M177.11 134.976L89.0449 84.167V93.698L177.11 144.507V134.976Z" fill="white"/>
<path opacity="0.15" d="M177.111 154.038L70.4102 92.5068V102.038L177.111 163.639V154.038Z" fill="white"/>
<path d="M188.32 132.313C188.32 141.283 193.645 151.585 200.16 155.369C206.676 159.154 212 154.949 212 145.979C212 137.008 206.676 126.706 200.16 122.922C193.575 119.138 188.32 123.342 188.32 132.313Z" fill="#F2994A"/>
<path opacity="0.3" d="M314.497 288.453L522.994 408.852L523.064 517.547L332.993 407.8L314.637 413.827L314.497 288.453Z" fill="url(#paint4_linear_46_1448)"/>
<path d="M462.323 427.984V398.479L541 443.892V473.396L462.323 427.984Z" fill="#F2994A"/>
<path opacity="0.15" d="M368.163 345.919L413.842 372.269V381.8L368.163 355.45V345.919Z" fill="white"/>
<path opacity="0.15" d="M368.163 364.981L450.623 412.566V422.097L368.163 374.582V364.981Z" fill="white"/>
<path opacity="0.15" d="M368.163 384.113L474.864 445.714V455.245L368.163 393.644V384.113Z" fill="white"/>
<path d="M356.883 349.353C356.883 358.323 351.559 362.528 345.043 358.744C338.528 354.96 333.203 344.658 333.203 335.687C333.203 326.717 338.528 322.512 345.043 326.296C351.559 330.081 356.883 340.383 356.883 349.353Z" fill="#F2994A"/>
<path opacity="0.3" d="M167.862 234.631L285.282 302.399V520L167.862 452.232V234.631Z" fill="url(#paint5_linear_46_1448)"/>
<path opacity="0.15" d="M179.422 363.79L273.722 418.242V427.773L179.422 373.321V363.79Z" fill="white"/>
<path opacity="0.15" d="M186.008 386.215L267.067 433.029V442.56L186.008 395.746V386.215Z" fill="white"/>
<path d="M220.267 425.111L138.577 377.946V402.264L220.267 449.429V425.111Z" fill="#F2C94C"/>
<path d="M239.954 320.2C239.954 330.712 233.858 335.688 226.362 331.343C218.866 326.998 212.771 314.874 212.771 304.291C212.771 293.779 218.866 288.803 226.362 293.148C233.858 297.564 239.954 309.688 239.954 320.2Z" fill="#F2C94C"/>
<path d="M226.362 339.822C214.242 332.744 204.224 339.402 202.472 354.609C202.192 357.272 204.153 360.776 206.606 362.178L246.119 385.305C248.571 386.706 250.533 385.585 250.253 382.572C248.501 365.191 238.483 346.9 226.362 339.822Z" fill="#F2C94C"/>
<path opacity="0.2" d="M102.497 216.83L72.5117 199.52V189.429L102.497 206.739C104.949 208.14 108.522 211.014 111.535 215.429C114.828 220.124 117.14 226.081 117.14 232.528C117.14 239.677 115.318 243.741 111.885 244.863C108.662 245.914 104.809 244.092 102.497 242.76L90.1667 235.612L90.0967 235.542C89.0458 234.911 87.3643 234.28 86.0332 234.701C84.9123 235.051 83.7212 236.103 83.7212 240.097C83.7212 244.092 84.9823 246.475 85.9631 247.946C87.2242 249.768 88.9056 251.03 89.9565 251.59L90.0967 251.661L127.789 273.456V283.547L90.3769 261.892C87.7847 260.561 84.0715 257.687 80.8488 253.202C77.3458 248.227 74.9638 241.989 74.9638 235.051C74.9638 228.113 77.3458 224.609 80.7787 223.628C84.0015 222.717 87.7146 224.049 90.3068 225.59L102.497 232.669C104.249 233.72 105.58 234.14 106.491 233.86C107.191 233.65 108.452 232.669 108.452 227.553C108.452 224.189 107.401 222.016 106.35 220.615C105.089 218.723 103.478 217.391 102.497 216.83Z" fill="white"/>
<path d="M77.976 197.348C77.976 206.388 72.6515 210.663 66.136 206.949C59.6204 203.165 54.2959 192.793 54.2959 183.682C54.2959 174.642 59.6204 170.367 66.136 174.081C72.6515 177.865 77.976 188.307 77.976 197.348Z" fill="#F2994A"/>
<path d="M143.131 287.051C143.131 296.091 137.807 300.366 131.291 296.652C124.776 292.868 119.451 282.496 119.451 273.385C119.451 264.345 124.776 260.07 131.291 263.784C137.807 267.568 143.131 278.01 143.131 287.051Z" fill="#F2C94C"/>
<defs>
<linearGradient id="paint0_linear_46_1448" x1="500.735" y1="115.383" x2="268.155" y2="230.724" gradientUnits="userSpaceOnUse">
<stop stop-color="white"/>
<stop offset="1" stop-color="white" stop-opacity="0"/>
</linearGradient>
<linearGradient id="paint1_linear_46_1448" x1="346.3" y1="100.308" x2="205.576" y2="166.553" gradientUnits="userSpaceOnUse">
<stop stop-color="white"/>
<stop offset="1" stop-color="white" stop-opacity="0"/>
</linearGradient>
<linearGradient id="paint2_linear_46_1448" x1="411.884" y1="148.775" x2="308.916" y2="255.057" gradientUnits="userSpaceOnUse">
<stop stop-color="white"/>
<stop offset="1" stop-color="white" stop-opacity="0"/>
</linearGradient>
<linearGradient id="paint3_linear_46_1448" x1="185.197" y1="76.8104" x2="77.526" y2="161.089" gradientUnits="userSpaceOnUse">
<stop stop-color="white"/>
<stop offset="1" stop-color="white" stop-opacity="0"/>
</linearGradient>
<linearGradient id="paint4_linear_46_1448" x1="404.075" y1="291.994" x2="431.043" y2="510.665" gradientUnits="userSpaceOnUse">
<stop stop-color="white"/>
<stop offset="1" stop-color="white" stop-opacity="0"/>
</linearGradient>
<linearGradient id="paint5_linear_46_1448" x1="297.858" y1="253.809" x2="193.585" y2="434.408" gradientUnits="userSpaceOnUse">
<stop stop-color="white"/>
<stop offset="1" stop-color="white" stop-opacity="0"/>
</linearGradient>
</defs>
</svg>
