<svg width="66" height="66" viewBox="0 0 66 66" fill="none" xmlns="http://www.w3.org/2000/svg">
<path d="M8.9336 39.3907H20.2565M8.9336 39.3907L20.0982 39.3877C20.1513 39.3877 20.2041 39.3887 20.2565 39.3907M8.9336 39.3907L8.9336 49.92C8.9336 51.3569 10.3896 52.5218 12.1857 52.5218H20.0993C21.8954 52.5218 23.3515 51.3569 23.3515 49.92V41.9895C23.3515 40.5947 21.9796 39.4563 20.2565 39.3907M8.9336 39.3907L8.93359 26.2559M20.2565 39.3907H35.4278C37.2239 39.3907 38.6799 38.2259 38.6799 36.789V28.8576C38.6799 27.4207 37.2239 26.2559 35.4278 26.2559M8.93359 26.2559H35.4278M8.93359 26.2559L8.93359 16.0977C8.93359 14.6608 10.3896 13.496 12.1857 13.496L54.4637 13.496C56.2598 13.496 57.7158 14.6608 57.7158 16.0977V23.6541C57.7158 25.091 56.2598 26.2559 54.4637 26.2559L35.4278 26.2559M8.93359 59.026V6.9917" stroke="black" stroke-width="1.66777" stroke-linecap="round" stroke-linejoin="round"/>
</svg>
