<svg width="152" height="101" viewBox="0 0 152 101" fill="none" xmlns="http://www.w3.org/2000/svg">
<g clip-path="url(#clip0_221_1381)">
<path d="M0.5 12.625C0.5 5.65241 6.13375 0 13.0833 0H138.917C145.866 0 151.5 5.65241 151.5 12.625V88.375C151.5 95.3476 145.866 101 138.917 101H13.0833C6.13375 101 0.5 95.3476 0.5 88.375V12.625Z" fill="#311E02"/>
<path d="M91.7585 20.6009L59.2598 20.7139L60.2391 80.3971L92.7378 80.2841L91.7585 20.6009Z" fill="#FF5F00"/>
<path d="M61.4008 50.6755C61.2009 38.5365 66.6225 27.7504 75.1136 20.7538C68.7053 15.709 60.6711 12.6755 51.9616 12.7057C31.3281 12.7771 14.9147 29.8296 15.2608 50.8353C15.6068 71.8411 32.5801 88.7779 53.2136 88.7064C61.9232 88.6763 69.8565 85.5875 76.0978 80.4989C67.3789 73.6675 61.6008 62.8145 61.4008 50.6755Z" fill="#EB001B"/>
<path d="M136.738 50.1644C137.084 71.1702 120.67 88.2226 100.037 88.2941C91.3272 88.3242 83.293 85.2908 76.8847 80.246C85.4795 73.2491 90.7975 62.4632 90.5975 50.3242C90.3976 38.1852 84.6212 27.4378 75.9005 20.5009C82.1418 15.4123 90.0752 12.3235 98.7848 12.2933C119.418 12.2219 136.393 29.2642 136.738 50.1644Z" fill="#F79E1B"/>
</g>
<defs>
<clipPath id="clip0_221_1381">
<rect width="151" height="101" fill="white" transform="translate(0.5)"/>
</clipPath>
</defs>
</svg>
