<svg width="60" height="60" viewBox="0 0 60 60" fill="none" xmlns="http://www.w3.org/2000/svg">
<path d="M47.25 29.2506V21.7506M47.25 21.7506V14.2506M47.25 21.7506L54.75 21.7506M47.25 21.7506H39.75M35.25 14.2506V9.75056M35.25 9.75056V5.25056M35.25 9.75056L39.75 9.75056M35.25 9.75056L30.75 9.75056M53.2498 37.3491C50.9941 38.0332 48.6009 38.401 46.1217 38.401C32.5767 38.401 21.5963 27.4206 21.5963 13.8756C21.5963 11.3976 21.9639 9.0054 22.6474 6.75056C12.5788 9.80402 5.25 19.1582 5.25 30.224C5.25 43.7691 16.2304 54.7494 29.7754 54.7494C40.8424 54.7494 50.1973 47.4192 53.2498 37.3491Z" stroke="black" stroke-width="2" stroke-linecap="round" stroke-linejoin="round"/>
</svg>
