<svg width="152" height="101" viewBox="0 0 152 101" fill="none" xmlns="http://www.w3.org/2000/svg">
<g clip-path="url(#clip0_221_1382)">
<path d="M0.5 12.625C0.5 5.65241 6.13375 0 13.0833 0H138.917C145.866 0 151.5 5.65241 151.5 12.625V88.375C151.5 95.3476 145.866 101 138.917 101H13.0833C6.13375 101 0.5 95.3476 0.5 88.375V12.625Z" fill="#002433"/>
<path d="M34.3829 36.3519C32.8057 35.264 30.7475 34.7188 28.2085 34.7188H18.3787C17.6003 34.7188 17.1703 35.1093 17.0886 35.8897L13.0955 61.0382C13.054 61.2852 13.1156 61.5111 13.2798 61.7165C13.4429 61.9222 13.6482 62.0245 13.894 62.0245H18.5631C19.382 62.0245 19.8322 61.6349 19.9148 60.8536L21.0205 54.0736C21.0608 53.745 21.2049 53.4778 21.4507 53.2721C21.6963 53.0667 22.0035 52.9324 22.3721 52.871C22.7408 52.8099 23.0883 52.779 23.4166 52.779C23.7439 52.779 24.1328 52.7999 24.5841 52.8408C25.0342 52.8817 25.3211 52.9019 25.4441 52.9019C28.9662 52.9019 31.7308 51.9061 33.738 49.9124C35.7443 47.9198 36.7486 45.1567 36.7486 41.6218C36.7486 39.1974 35.9593 37.4408 34.3829 36.3513V36.3519ZM29.3147 43.9032C29.1093 45.3417 28.5775 46.2863 27.7174 46.7385C26.8572 47.1913 25.6285 47.4166 24.0314 47.4166L22.0039 47.478L23.0485 40.8825C23.13 40.4309 23.3961 40.2048 23.847 40.2048H25.0147C26.6521 40.2048 27.8406 40.4416 28.5779 40.9134C29.3147 41.3863 29.5606 42.3831 29.3147 43.9032Z" fill="#3978EB"/>
<path d="M138.116 34.7188H133.571C133.119 34.7188 132.853 34.9448 132.772 35.3972L128.778 61.0393L128.717 61.1626C128.717 61.3691 128.799 61.5633 128.963 61.7483C129.126 61.933 129.332 62.0255 129.577 62.0255H133.632C134.409 62.0255 134.84 61.6358 134.923 60.8545L138.916 35.6438V35.5826C138.916 35.007 138.649 34.7195 138.116 34.7195V34.7188Z" fill="#3DC5FF"/>
<path d="M83.1931 44.6432C83.1931 44.4382 83.1109 44.2426 82.9481 44.0582C82.7837 43.8733 82.5993 43.7803 82.395 43.7803H77.6645C77.2131 43.7803 76.8444 43.9868 76.5582 44.3966L70.0462 54.0126L67.343 44.7668C67.1372 44.1098 66.6873 43.7803 65.9915 43.7803H61.3831C61.1778 43.7803 60.9936 43.873 60.8308 44.0582C60.6665 44.2426 60.585 44.4386 60.585 44.6432C60.585 44.7259 60.9844 45.9377 61.7828 48.28C62.5813 50.623 63.4414 53.1503 64.363 55.8626C65.2847 58.5743 65.7656 60.0134 65.8067 60.1764C62.448 64.7795 60.7694 67.245 60.7694 67.5732C60.7694 68.1079 61.0351 68.3747 61.568 68.3747H66.2985C66.7489 68.3747 67.1173 68.1697 67.4046 67.7586L83.0711 45.0744C83.1524 44.993 83.1931 44.8499 83.1931 44.643V44.6432Z" fill="#3978EB"/>
<path d="M127.245 43.7811H122.575C122.001 43.7811 121.654 44.4593 121.531 45.8157C120.465 44.1724 118.521 43.3496 115.694 43.3496C112.746 43.3496 110.237 44.4593 108.169 46.6784C106.1 48.8975 105.066 51.5077 105.066 54.5071C105.066 56.9321 105.773 58.8633 107.186 60.301C108.599 61.7402 110.493 62.4585 112.869 62.4585C114.057 62.4585 115.265 62.2115 116.493 61.7188C117.722 61.2257 118.684 60.5685 119.381 59.7463C119.381 59.7876 119.339 59.9719 119.258 60.3004C119.176 60.6298 119.135 60.8772 119.135 61.0401C119.135 61.6984 119.401 62.0262 119.934 62.0262H124.174C124.951 62.0262 125.402 61.6366 125.524 60.8553L128.044 44.7672C128.084 44.5204 128.023 44.2948 127.859 44.0891C127.694 43.8841 127.49 43.7811 127.245 43.7811ZM119.227 55.9247C118.183 56.9521 116.923 57.4655 115.449 57.4655C114.261 57.4655 113.299 57.1373 112.561 56.4793C111.824 55.8233 111.455 54.9191 111.455 53.7672C111.455 52.2479 111.967 50.9626 112.992 49.9149C114.014 48.8669 115.285 48.3432 116.8 48.3432C117.946 48.3432 118.899 48.6821 119.657 49.3598C120.414 50.0381 120.794 50.973 120.794 52.165C120.794 53.6442 120.272 54.8979 119.227 55.9247Z" fill="#3DC5FF"/>
<path d="M57.4513 43.7811H52.782C52.2078 43.7811 51.8604 44.4593 51.7374 45.8157C50.6315 44.1724 48.6859 43.3496 45.9009 43.3496C42.9519 43.3496 40.4429 44.4593 38.3748 46.6784C36.3062 48.8975 35.2725 51.5077 35.2725 54.5071C35.2725 56.9321 35.9791 58.8633 37.3922 60.301C38.8052 61.7402 40.699 62.4585 43.0749 62.4585C44.2211 62.4585 45.4096 62.2115 46.6381 61.7188C47.8668 61.2257 48.8498 60.5685 49.5871 59.7463C49.4227 60.239 49.3412 60.6707 49.3412 61.0401C49.3412 61.6984 49.6073 62.0262 50.1399 62.0262H54.3789C55.1565 62.0262 55.6076 61.6366 55.7306 60.8553L58.2493 44.7672C58.2897 44.5204 58.2285 44.2948 58.0651 44.0891C57.9012 43.8841 57.6967 43.7811 57.4513 43.7811ZM49.4338 55.9552C48.3892 56.9632 47.1087 57.4655 45.5942 57.4655C44.4057 57.4655 43.4535 57.1373 42.7373 56.4793C42.0201 55.8233 41.662 54.9191 41.662 53.7672C41.662 52.2479 42.1737 50.9626 43.1981 49.9149C44.2213 48.8669 45.4911 48.343 47.0071 48.343C48.1533 48.343 49.1056 48.6821 49.864 49.3598C50.6212 50.0381 51.0005 50.973 51.0005 52.165C51.0003 53.6855 50.4783 54.9495 49.4338 55.9552Z" fill="#3978EB"/>
<path d="M104.175 36.3519C102.598 35.264 100.541 34.7188 98.001 34.7188H88.2324C87.4131 34.7188 86.9623 35.1093 86.881 35.8897L82.8875 61.0382C82.846 61.2852 82.9076 61.5111 83.0719 61.7165C83.2344 61.9222 83.4402 62.0245 83.686 62.0245H88.7235C89.2149 62.0245 89.5424 61.7577 89.7067 61.2234L90.8126 54.0736C90.8534 53.745 90.9966 53.4778 91.2428 53.2721C91.4886 53.0667 91.7955 52.9324 92.1645 52.871C92.5327 52.8099 92.8803 52.779 93.2087 52.779C93.5362 52.779 93.925 52.7999 94.3758 52.8408C94.8261 52.8817 95.1138 52.9019 95.2359 52.9019C98.7587 52.9019 101.523 51.9061 103.53 49.9124C105.537 47.9198 106.54 45.1567 106.54 41.6218C106.541 39.1974 105.752 37.4407 104.175 36.3513V36.3519ZM97.8782 46.4917C96.977 47.108 95.6252 47.416 93.8236 47.416L91.8573 47.4778L92.9017 40.8821C92.9828 40.4307 93.2491 40.2042 93.7002 40.2042H94.8057C95.7068 40.2042 96.4234 40.2455 96.9567 40.3274C97.4882 40.4099 98.001 40.6664 98.4924 41.0976C98.9843 41.5293 99.2297 42.1563 99.2297 42.9777C99.2297 44.7043 98.7786 45.8749 97.8782 46.4917Z" fill="#3DC5FF"/>
</g>
<defs>
<clipPath id="clip0_221_1382">
<rect width="151" height="101" fill="white" transform="translate(0.5)"/>
</clipPath>
</defs>
</svg>
