<svg width="466" height="615" viewBox="0 0 466 615" fill="none" xmlns="http://www.w3.org/2000/svg">
<path opacity="0.5" d="M253.626 188.784C211.897 164.397 177.399 187.189 171.296 239.819C170.234 248.922 177.134 260.95 185.559 265.867L321.693 345.475C330.119 350.393 337.018 346.406 335.957 336.039C329.853 276.433 295.289 213.172 253.626 188.784Z" fill="url(#paint0_linear_46_1385)"/>
<path opacity="0.5" d="M300.132 120.473C300.132 156.822 279.168 173.966 253.295 158.815C227.421 143.664 206.457 102 206.457 65.6511C206.457 29.3025 227.421 12.1582 253.295 27.309C279.168 42.4598 300.132 84.1245 300.132 120.473Z" fill="url(#paint1_linear_46_1385)"/>
<path opacity="0.07" d="M280.428 166.988C238.699 142.601 204.201 165.394 198.097 218.023C197.036 227.126 203.936 239.154 212.361 244.071L348.495 323.679C356.92 328.597 363.82 324.61 362.759 314.243C356.655 254.637 322.157 191.376 280.428 166.988Z" fill="url(#paint2_linear_46_1385)"/>
<path opacity="0.07" d="M326.934 98.6772C326.934 135.026 305.97 152.17 280.096 137.019C254.223 121.868 233.259 80.2038 233.259 43.8552C233.259 7.50665 254.223 -9.63766 280.096 5.51313C305.97 20.6639 326.934 62.3286 326.934 98.6772Z" fill="url(#paint3_linear_46_1385)"/>
<path opacity="0.2" d="M417.093 372.255L299.203 304.077V365.61L417.093 433.789V372.255Z" fill="url(#paint4_linear_46_1385)"/>
<path d="M323.152 338.565C323.152 343.615 320.167 346.007 316.452 343.881C312.736 341.754 309.751 335.907 309.751 330.856C309.751 325.806 312.736 323.414 316.452 325.54C320.167 327.667 323.152 333.514 323.152 338.565Z" fill="#F2C94C"/>
<path opacity="0.15" d="M329.389 336.372L364.815 356.905V364.281L329.322 343.748L329.389 336.372Z" fill="white"/>
<path opacity="0.15" d="M329.389 351.19L404.886 394.849V402.358L329.389 358.699V351.19Z" fill="white"/>
<path opacity="0.2" d="M177.598 301.153L59.708 233.041V294.574L177.598 362.752V301.153Z" fill="url(#paint5_linear_46_1385)"/>
<path d="M83.657 267.462C83.657 272.512 80.6716 274.905 76.9564 272.778C73.2413 270.652 70.2559 264.804 70.2559 259.754C70.2559 254.704 73.2413 252.311 76.9564 254.438C80.6716 256.564 83.657 262.412 83.657 267.462Z" fill="#F2994A"/>
<path opacity="0.15" d="M89.6943 265.602L111.056 277.961V285.47L89.6943 273.111V265.602Z" fill="white"/>
<path opacity="0.15" d="M89.8936 280.42L165.391 324.078V331.587L89.8936 287.929V280.42Z" fill="white"/>
<path opacity="0.3" d="M253.56 369.198L476.934 498.379L477 615L273.33 497.249L253.626 503.695L253.56 369.198Z" fill="url(#paint6_linear_46_1385)"/>
<path d="M298.937 434.52C298.937 444.155 293.298 448.607 286.266 444.554C279.234 440.5 273.595 429.403 273.595 419.834C273.595 410.199 279.234 405.746 286.266 409.8C293.232 413.853 298.937 424.951 298.937 434.52Z" fill="#F2C94C"/>
<path opacity="0.15" d="M311.012 430.798L359.972 459.106V469.34L311.012 441.032V430.798Z" fill="white"/>
<path opacity="0.15" d="M311.012 451.332L457.23 535.857V546.09L311.012 461.565V451.332Z" fill="white"/>
<path opacity="0.15" d="M311.012 471.865L425.319 537.983V548.217L311.012 482.098V471.865Z" fill="white"/>
<path opacity="0.3" d="M223.374 402.69L0 273.576L0.0663421 390.197L203.737 507.948L223.44 537.186L223.374 402.69Z" fill="url(#paint7_linear_46_1385)"/>
<path d="M177.996 415.515C177.996 425.15 183.702 436.181 190.667 440.234C197.7 444.288 203.339 439.769 203.339 430.134C203.339 420.498 197.633 409.468 190.667 405.414C183.702 401.427 177.996 405.946 177.996 415.515Z" fill="#F2994A"/>
<path opacity="0.15" d="M165.921 397.905L116.961 369.597V379.831L165.921 408.139V397.905Z" fill="white"/>
<path opacity="0.15" d="M165.988 418.372L19.7695 333.847V344.08L165.921 428.606L165.988 418.372Z" fill="white"/>
<path opacity="0.15" d="M165.988 438.905L51.6807 372.787V383.02L165.988 449.139V438.905Z" fill="white"/>
<path opacity="0.2" d="M86.5005 460.153C90.481 462.412 88.0966 461.078 85.8473 459.774L100.177 468.081L113.578 475.789C117.559 478.048 120.743 483.63 120.743 488.215C120.743 492.801 117.559 494.661 113.578 492.402L100.177 484.627L84.0005 475.325C88.6528 478 103.953 486.769 99.9728 484.51C95.9923 482.25 100.046 484.552 95.8251 482.124L85.8473 476.387L72.4462 468.679C68.4657 466.42 65.2812 460.838 65.2812 456.253C65.2812 451.667 68.4657 449.807 72.4462 452.066L85.8473 459.774L85.5005 459.575C82.0911 457.614 82.52 457.827 86.5005 460.153Z" fill="url(#paint8_linear_46_1385)"/>
<path opacity="0.2" d="M428.731 144.001C432.712 146.261 435.896 151.842 435.896 156.494V176.762L449.297 184.47C453.278 186.729 456.462 192.311 456.462 196.896C456.462 201.481 453.278 203.342 449.297 201.083L435.896 193.308V213.575C435.896 218.16 432.712 220.021 428.731 217.762C424.75 215.502 421.566 209.92 421.566 205.335V185.068L408.165 177.36C404.184 175.1 401 169.518 401 164.933C401 160.348 404.184 158.488 408.165 160.747L421.566 168.455V148.188C421.5 143.536 424.75 141.676 428.731 144.001Z" fill="url(#paint9_linear_46_1385)"/>
<path opacity="0.2" d="M381.268 215.697L399.711 251.979C402.232 256.963 401.834 261.947 398.782 263.143C395.731 264.339 391.219 261.216 388.698 256.232L388.499 255.767V296.036C388.499 300.621 385.315 302.482 381.334 300.223C377.354 297.897 374.17 292.381 374.17 287.796V247.527L373.97 247.727C371.449 249.787 366.872 247.66 363.886 242.942C360.835 238.224 360.437 232.775 362.958 230.715L381.268 215.697Z" fill="url(#paint10_linear_46_1385)"/>
<path opacity="0.2" d="M223.374 280.56L194.979 264.147V254.578L223.374 270.991C225.696 272.32 229.079 275.044 231.932 279.231C235.05 283.683 237.239 289.331 237.239 295.445C237.239 302.223 235.515 306.077 232.264 307.14C229.212 308.137 225.563 306.409 223.374 305.147L211.698 298.369L211.631 298.302C210.636 297.704 209.044 297.106 207.784 297.505C206.722 297.837 205.594 298.834 205.594 302.622C205.594 306.409 206.788 308.669 207.717 310.064C208.911 311.792 210.504 312.988 211.499 313.519L211.631 313.586L247.323 334.252V343.821L211.83 323.288C209.376 322.025 205.86 319.301 202.808 315.048C199.491 310.33 197.235 304.416 197.235 297.837C197.235 291.258 199.491 287.936 202.742 287.006C205.793 286.142 209.309 287.404 211.764 288.866L223.308 295.578C224.966 296.575 226.227 296.973 227.089 296.707C227.753 296.508 228.947 295.578 228.947 290.727C228.947 287.537 227.952 285.477 226.956 284.148C225.829 282.354 224.369 281.092 223.374 280.56Z" fill="white"/>
<path d="M200.221 262.086C200.221 270.659 195.179 274.712 189.009 271.19C182.839 267.602 177.797 257.767 177.797 249.129C177.797 240.556 182.839 236.503 189.009 240.025C195.179 243.613 200.221 253.514 200.221 262.086Z" fill="#F2994A"/>
<path d="M261.919 347.144C261.919 355.716 256.877 359.769 250.707 356.247C244.537 352.659 239.495 342.824 239.495 334.186C239.495 325.614 244.537 321.56 250.707 325.082C256.877 328.67 261.919 338.571 261.919 347.144Z" fill="#F2C94C"/>
<path opacity="0.2" d="M20.0981 532.485L1.65498 496.203C-0.866016 491.219 -0.467945 486.236 2.58379 485.039C5.63553 483.843 10.1468 486.967 12.6678 491.95L12.8668 492.416V452.146C12.8668 447.561 16.0512 445.701 20.0318 447.96C24.0123 450.286 27.1967 455.801 27.1967 460.386V500.655L27.3957 500.456C29.9167 498.396 34.4943 500.523 37.4797 505.241C40.5315 509.959 40.9295 515.407 38.4085 517.467L20.0981 532.485Z" fill="url(#paint11_linear_46_1385)"/>
<defs>
<linearGradient id="paint0_linear_46_1385" x1="425.768" y1="149.015" x2="256.108" y2="272.574" gradientUnits="userSpaceOnUse">
<stop stop-color="white"/>
<stop offset="1" stop-color="white" stop-opacity="0"/>
</linearGradient>
<linearGradient id="paint1_linear_46_1385" x1="339.405" y1="30.1569" x2="169.745" y2="153.716" gradientUnits="userSpaceOnUse">
<stop stop-color="white"/>
<stop offset="1" stop-color="white" stop-opacity="0"/>
</linearGradient>
<linearGradient id="paint2_linear_46_1385" x1="452.581" y1="127.211" x2="282.921" y2="250.77" gradientUnits="userSpaceOnUse">
<stop stop-color="white"/>
<stop offset="1" stop-color="white" stop-opacity="0"/>
</linearGradient>
<linearGradient id="paint3_linear_46_1385" x1="366.218" y1="8.35284" x2="196.558" y2="131.912" gradientUnits="userSpaceOnUse">
<stop stop-color="white"/>
<stop offset="1" stop-color="white" stop-opacity="0"/>
</linearGradient>
<linearGradient id="paint4_linear_46_1385" x1="371.434" y1="345.865" x2="344.777" y2="391.975" gradientUnits="userSpaceOnUse">
<stop stop-color="white"/>
<stop offset="1" stop-color="white" stop-opacity="0"/>
</linearGradient>
<linearGradient id="paint5_linear_46_1385" x1="131.94" y1="274.771" x2="105.282" y2="320.881" gradientUnits="userSpaceOnUse">
<stop stop-color="white"/>
<stop offset="1" stop-color="white" stop-opacity="0"/>
</linearGradient>
<linearGradient id="paint6_linear_46_1385" x1="349.504" y1="372.994" x2="378.479" y2="607.619" gradientUnits="userSpaceOnUse">
<stop stop-color="white"/>
<stop offset="1" stop-color="white" stop-opacity="0"/>
</linearGradient>
<linearGradient id="paint7_linear_46_1385" x1="174.666" y1="355.989" x2="59.1716" y2="446.27" gradientUnits="userSpaceOnUse">
<stop stop-color="white"/>
<stop offset="1" stop-color="white" stop-opacity="0"/>
</linearGradient>
<linearGradient id="paint8_linear_46_1385" x1="106.848" y1="461.207" x2="72.0692" y2="488.609" gradientUnits="userSpaceOnUse">
<stop stop-color="white"/>
<stop offset="1" stop-color="white" stop-opacity="0"/>
</linearGradient>
<linearGradient id="paint9_linear_46_1385" x1="442.566" y1="169.888" x2="407.788" y2="197.29" gradientUnits="userSpaceOnUse">
<stop stop-color="white"/>
<stop offset="1" stop-color="white" stop-opacity="0"/>
</linearGradient>
<linearGradient id="paint10_linear_46_1385" x1="394.378" y1="252.298" x2="360.703" y2="271.04" gradientUnits="userSpaceOnUse">
<stop stop-color="white"/>
<stop offset="1" stop-color="white" stop-opacity="0"/>
</linearGradient>
<linearGradient id="paint11_linear_46_1385" x1="6.9881" y1="495.884" x2="40.6636" y2="477.143" gradientUnits="userSpaceOnUse">
<stop stop-color="white"/>
<stop offset="1" stop-color="white" stop-opacity="0"/>
</linearGradient>
</defs>
</svg>
