<svg width="413" height="584" viewBox="0 0 413 584" fill="none" xmlns="http://www.w3.org/2000/svg">
<path opacity="0.3" d="M180.865 515.865C185.126 518.074 188.508 516.294 188.508 511.877V423.03L227.265 443.34V385.172C227.265 380.755 223.815 375.355 219.622 373.146C215.36 370.937 211.978 372.717 211.978 377.134V419.287L173.222 398.978V503.839C173.222 508.256 176.671 513.656 180.865 515.865Z" fill="url(#paint0_linear_46_1565)"/>
<path opacity="0.3" d="M240.455 87.9543C244.716 90.1632 248.098 95.5627 248.098 99.9805V301.664C248.098 306.082 244.648 307.861 240.455 305.652C236.193 303.444 232.812 298.044 232.812 293.626V91.9426C232.812 87.5248 236.261 85.7454 240.455 87.9543Z" fill="url(#paint1_linear_46_1565)"/>
<path d="M197.031 505.741C197.031 517.889 189.185 523.657 179.512 518.564C169.84 513.533 161.994 499.543 161.994 487.395C161.994 475.246 169.84 469.478 179.512 474.571C189.185 479.602 197.031 493.592 197.031 505.741Z" fill="#F2C94C"/>
<path opacity="0.3" d="M325.747 189.072C321.485 186.863 318.103 188.642 318.103 193.06V252.946L279.347 232.636V306.204C279.347 310.622 282.796 316.022 286.99 318.23C291.251 320.439 294.633 318.66 294.633 314.242V256.688L333.39 276.998V201.098C333.39 196.68 329.94 191.281 325.747 189.072Z" fill="url(#paint2_linear_46_1565)"/>
<path d="M342.927 210.24C342.927 222.266 335.148 227.911 325.611 222.941C316.074 217.91 308.296 204.166 308.296 192.14C308.296 180.113 316.007 174.469 325.611 179.439C335.216 184.47 342.927 198.214 342.927 210.24Z" fill="#F2994A"/>
<path opacity="0.3" d="M240.59 582.994C236.329 580.649 232.947 574.919 232.947 570.231V415.909C232.947 411.221 236.397 409.333 240.59 411.677C244.852 414.021 248.234 419.751 248.234 424.439V578.761C248.234 583.449 244.784 585.338 240.59 582.994Z" fill="url(#paint3_linear_46_1565)"/>
<path opacity="0.3" d="M34.5635 277.734L144.679 335.411V520.467L34.5635 462.79V277.734Z" fill="url(#paint4_linear_46_1565)"/>
<path opacity="0.15" d="M52.0137 395.419L117.623 429.779V437.081L52.0137 402.721V395.419Z" fill="white"/>
<path opacity="0.15" d="M58.8457 413.396L110.86 440.639V447.941L58.8457 420.698V413.396Z" fill="white"/>
<path d="M76.5666 446.346L0 406.218V426.895L76.6343 467.024L76.5666 446.346Z" fill="#F2C94C"/>
<path opacity="0.2" d="M113.497 353.879L96.3844 366.151L84.8859 352.775L69.8701 364.556L63.918 360.629L86.0357 343.755L97.2637 357.131L109.641 348.787L113.497 353.879Z" fill="white"/>
<path d="M126.349 353.573C126.349 360.506 121.884 363.758 116.406 360.874C110.927 357.991 106.463 350.075 106.463 343.142C106.463 336.209 110.927 332.957 116.406 335.84C121.884 338.724 126.349 346.701 126.349 353.573Z" fill="#F2C94C"/>
<path d="M75.079 366.949C75.079 373.882 70.6149 377.134 65.1362 374.25C59.6575 371.367 55.1934 363.451 55.1934 356.518C55.1934 349.585 59.6575 346.333 65.1362 349.216C70.6149 352.1 75.079 360.015 75.079 366.949Z" fill="#F2C94C"/>
<path opacity="0.2" d="M413 398.732L308.296 343.878V393.333L413 448.187V398.732Z" fill="url(#paint5_linear_46_1565)"/>
<path opacity="0.15" d="M335.08 369.894L366.6 386.399V392.351L335.08 375.784V369.894Z" fill="white"/>
<path opacity="0.15" d="M335.148 381.797L402.246 416.894V422.907L335.148 387.81V381.797Z" fill="white"/>
<path d="M329.602 371.612C329.602 375.662 326.964 377.625 323.649 375.907C320.335 374.189 317.697 369.465 317.697 365.415C317.697 361.365 320.335 359.402 323.649 361.12C326.964 362.838 329.602 367.562 329.602 371.612Z" fill="#F2994A"/>
<path opacity="0.2" d="M179.704 252.854L75 198V247.455L179.704 302.309V252.854Z" fill="url(#paint6_linear_46_1565)"/>
<path opacity="0.15" d="M101.785 224.016L133.305 240.521V246.473L101.785 229.967V224.016Z" fill="white"/>
<path opacity="0.15" d="M101.853 235.919L168.95 271.016V277.029L101.853 241.932V235.919Z" fill="white"/>
<path d="M96.3067 225.734C96.3067 229.783 93.6688 231.747 90.3545 230.029C87.0402 228.311 84.4023 223.586 84.4023 219.537C84.4023 215.487 87.0402 213.523 90.3545 215.241C93.6012 216.959 96.3067 221.684 96.3067 225.734Z" fill="#F2994A"/>
<path opacity="0.2" d="M282.661 354.984C282.661 385.049 263.249 399.284 239.373 386.767C215.429 374.25 196.084 339.706 196.084 309.64C196.084 279.575 215.496 265.34 239.373 277.857C263.317 290.374 282.661 324.918 282.661 354.984Z" fill="url(#paint7_linear_46_1565)"/>
<path opacity="0.4" d="M261.979 349.113C260.222 348.095 258.961 348.074 258.196 349.03C257.41 349.986 257.038 351.606 257.038 353.87V366.127C257.038 368.454 256.831 370.385 256.397 371.923C255.963 373.522 255.239 374.644 254.247 375.309C253.275 375.994 251.952 376.161 250.277 375.849C248.644 375.558 246.597 374.686 244.158 373.273L243 372.588V362.928L244.468 363.779C246.225 364.797 247.383 364.922 247.962 364.195C248.582 363.468 248.892 361.972 248.892 359.708V348.905C248.892 346.08 249.161 343.857 249.719 342.237C250.257 340.596 251.353 339.557 252.986 339.1C251.353 336.753 250.257 334.426 249.719 332.162C249.182 329.897 248.913 327.363 248.913 324.538V313.735C248.913 311.471 248.603 309.601 247.983 308.168C247.404 306.755 246.225 305.529 244.489 304.512L243.021 303.66V294L244.178 294.686C246.618 296.098 248.665 297.615 250.298 299.214C251.973 300.835 253.296 302.538 254.268 304.366C255.281 306.194 256.004 308.147 256.418 310.245C256.852 312.281 257.059 314.462 257.059 316.789V329.045C257.059 331.31 257.452 333.387 258.217 335.236C259.002 337.085 260.263 338.539 262 339.536L261.979 349.113Z" fill="url(#paint8_linear_46_1565)"/>
<path opacity="0.4" d="M217 313.878C218.757 314.896 220.018 314.916 220.783 313.961C221.569 313.006 221.941 311.387 221.941 309.124V296.875C221.941 294.549 222.148 292.618 222.582 291.082C223.016 289.483 223.719 288.362 224.691 287.677C225.704 287.013 227.027 286.847 228.66 287.137C230.335 287.449 232.403 288.321 234.842 289.753L236 290.438V300.093L234.532 299.241C232.775 298.224 231.596 298.079 230.976 298.805C230.397 299.553 230.108 301.048 230.108 303.331V314.127C230.108 316.93 229.839 319.172 229.281 320.792C228.743 322.432 227.647 323.47 226.014 323.927C227.647 326.273 228.743 328.598 229.281 330.861C229.818 333.124 230.087 335.657 230.087 338.481V349.277C230.087 351.54 230.376 353.387 230.955 354.82C231.576 356.252 232.754 357.498 234.511 358.495L235.979 359.346V369L234.822 368.315C232.382 366.903 230.314 365.367 228.64 363.768C227.007 362.169 225.683 360.467 224.67 358.619C223.699 356.813 222.996 354.861 222.582 352.785C222.148 350.751 221.941 348.571 221.941 346.245V333.996C221.941 331.733 221.548 329.657 220.783 327.809C219.998 325.961 218.737 324.508 217 323.512V313.878Z" fill="url(#paint9_linear_46_1565)"/>
<path opacity="0.4" d="M217.021 313.887C218.778 314.905 220.039 314.926 220.804 313.97C221.59 313.014 221.962 311.394 221.962 309.13V296.873C221.962 294.546 222.169 292.615 222.603 291.077C223.037 289.478 223.761 288.356 224.753 287.691C225.725 287.006 227.048 286.839 228.723 287.151C230.356 287.442 232.403 288.314 234.842 289.727L236 290.412V300.072L234.532 299.221C232.775 298.203 231.617 298.078 231.038 298.805C230.418 299.532 230.108 301.028 230.108 303.292V314.095C230.108 316.92 229.839 319.143 229.281 320.763C228.743 322.404 227.647 323.443 226.014 323.9C227.647 326.247 228.743 328.574 229.281 330.838C229.818 333.103 230.087 335.637 230.087 338.462V349.265C230.087 351.529 230.397 353.399 231.017 354.832C231.596 356.245 232.775 357.471 234.511 358.488L235.979 359.34V369L234.822 368.314C232.382 366.902 230.335 365.385 228.702 363.786C227.027 362.165 225.704 360.462 224.732 358.634C223.719 356.806 222.996 354.853 222.582 352.755C222.148 350.719 221.941 348.538 221.941 346.211V333.955C221.941 331.69 221.548 329.613 220.783 327.764C219.998 325.915 218.737 324.461 217 323.464L217.021 313.887Z" fill="url(#paint10_linear_46_1565)"/>
<path opacity="0.4" d="M262 349.122C260.243 348.104 258.982 348.084 258.217 349.039C257.431 349.994 257.059 351.613 257.059 353.876V366.125C257.059 368.451 256.852 370.382 256.418 371.918C255.984 373.517 255.281 374.638 254.309 375.323C253.296 375.987 251.973 376.153 250.34 375.863C248.665 375.551 246.597 374.679 244.158 373.247L243 372.562V362.907L244.468 363.759C246.225 364.776 247.404 364.921 248.024 364.195C248.603 363.447 248.892 361.952 248.892 359.669V348.873C248.892 346.07 249.161 343.828 249.719 342.208C250.257 340.568 251.353 339.53 252.986 339.073C251.353 336.727 250.257 334.402 249.719 332.139C249.182 329.876 248.913 327.343 248.913 324.519V313.723C248.913 311.46 248.624 309.613 248.045 308.18C247.424 306.748 246.246 305.502 244.489 304.505L243.021 303.654V294L244.178 294.685C246.618 296.097 248.686 297.633 250.36 299.232C251.993 300.831 253.317 302.533 254.33 304.381C255.301 306.187 256.004 308.139 256.418 310.215C256.852 312.249 257.059 314.429 257.059 316.755V329.004C257.059 331.267 257.452 333.343 258.217 335.191C259.002 337.039 260.263 338.492 262 339.488V349.122Z" fill="url(#paint11_linear_46_1565)"/>
<path opacity="0.2" d="M325.449 132L339.719 160.012C341.67 163.86 341.362 167.708 339.001 168.631C336.639 169.555 333.149 167.143 331.198 163.295L331.044 162.936V194.026C331.044 197.566 328.58 199.003 325.5 197.259C322.42 195.463 319.956 191.205 319.956 187.665V156.575L319.802 156.729C317.851 158.319 314.309 156.677 311.999 153.035C309.638 149.392 309.33 145.185 311.281 143.595L325.449 132Z" fill="url(#paint12_linear_46_1565)"/>
<path opacity="0.2" d="M179.551 565L165.281 536.988C163.33 533.14 163.638 529.292 165.999 528.369C168.361 527.445 171.851 529.857 173.802 533.705L173.956 534.064V502.974C173.956 499.434 176.42 497.997 179.5 499.741C182.58 501.537 185.044 505.795 185.044 509.335V540.425L185.198 540.271C187.149 538.681 190.691 540.323 193.001 543.965C195.362 547.608 195.67 551.815 193.719 553.405L179.551 565Z" fill="url(#paint13_linear_46_1565)"/>
<defs>
<linearGradient id="paint0_linear_46_1565" x1="156.299" y1="494.986" x2="216.707" y2="379.617" gradientUnits="userSpaceOnUse">
<stop stop-color="white"/>
<stop offset="1" stop-color="white" stop-opacity="0"/>
</linearGradient>
<linearGradient id="paint1_linear_46_1565" x1="288.588" y1="121.154" x2="205.701" y2="279.457" gradientUnits="userSpaceOnUse">
<stop stop-color="white"/>
<stop offset="1" stop-color="white" stop-opacity="0"/>
</linearGradient>
<linearGradient id="paint2_linear_46_1565" x1="366.773" y1="159.883" x2="287.813" y2="310.682" gradientUnits="userSpaceOnUse">
<stop stop-color="white"/>
<stop offset="1" stop-color="white" stop-opacity="0"/>
</linearGradient>
<linearGradient id="paint3_linear_46_1565" x1="205.864" y1="555.174" x2="271.502" y2="437.213" gradientUnits="userSpaceOnUse">
<stop stop-color="white"/>
<stop offset="1" stop-color="white" stop-opacity="0"/>
</linearGradient>
<linearGradient id="paint4_linear_46_1565" x1="156.47" y1="294.038" x2="72.2996" y2="454.79" gradientUnits="userSpaceOnUse">
<stop stop-color="white"/>
<stop offset="1" stop-color="white" stop-opacity="0"/>
</linearGradient>
<linearGradient id="paint5_linear_46_1565" x1="372.457" y1="377.474" x2="352.122" y2="416.31" gradientUnits="userSpaceOnUse">
<stop stop-color="white"/>
<stop offset="1" stop-color="white" stop-opacity="0"/>
</linearGradient>
<linearGradient id="paint6_linear_46_1565" x1="139.161" y1="231.595" x2="118.826" y2="270.432" gradientUnits="userSpaceOnUse">
<stop stop-color="white"/>
<stop offset="1" stop-color="white" stop-opacity="0"/>
</linearGradient>
<linearGradient id="paint7_linear_46_1565" x1="248.069" y1="287.388" x2="231.872" y2="389.063" gradientUnits="userSpaceOnUse">
<stop stop-color="white"/>
<stop offset="1" stop-color="white" stop-opacity="0"/>
</linearGradient>
<linearGradient id="paint8_linear_46_1565" x1="273.88" y1="291.085" x2="239.775" y2="349.926" gradientUnits="userSpaceOnUse">
<stop stop-color="white"/>
<stop offset="0.903" stop-color="white" stop-opacity="0"/>
</linearGradient>
<linearGradient id="paint9_linear_46_1565" x1="253.637" y1="287.369" x2="219.558" y2="346.186" gradientUnits="userSpaceOnUse">
<stop stop-color="white"/>
<stop offset="0.903" stop-color="white" stop-opacity="0"/>
</linearGradient>
<linearGradient id="paint10_linear_46_1565" x1="205.12" y1="371.915" x2="239.225" y2="313.074" gradientUnits="userSpaceOnUse">
<stop stop-color="white"/>
<stop offset="0.903" stop-color="white" stop-opacity="0"/>
</linearGradient>
<linearGradient id="paint11_linear_46_1565" x1="225.363" y1="375.631" x2="259.442" y2="316.814" gradientUnits="userSpaceOnUse">
<stop stop-color="white"/>
<stop offset="0.903" stop-color="white" stop-opacity="0"/>
</linearGradient>
<linearGradient id="paint12_linear_46_1565" x1="335.62" y1="160.24" x2="309.59" y2="174.758" gradientUnits="userSpaceOnUse">
<stop stop-color="white"/>
<stop offset="1" stop-color="white" stop-opacity="0"/>
</linearGradient>
<linearGradient id="paint13_linear_46_1565" x1="169.38" y1="536.76" x2="195.41" y2="522.242" gradientUnits="userSpaceOnUse">
<stop stop-color="white"/>
<stop offset="1" stop-color="white" stop-opacity="0"/>
</linearGradient>
</defs>
</svg>
