<svg width="200" height="68" viewBox="0 0 200 68" fill="none" xmlns="http://www.w3.org/2000/svg">
<path fill-rule="evenodd" clip-rule="evenodd" d="M186.756 0.163818H12.1557C1.73462 0.163818 0 3.8174 0 12.5063V55.407C0 64.0893 3.56926 67.672 12.1437 67.672H186.757C195.338 67.672 199.033 64.0844 199.033 55.3959V12.5063C199.033 3.8174 195.337 0.163818 186.756 0.163818Z" fill="black"/>
<path fill-rule="evenodd" clip-rule="evenodd" d="M51.8918 42.1849C50.8894 44.4347 50.4096 45.439 49.1191 47.4273C47.3178 50.2037 44.78 53.6607 41.6352 53.6897C38.84 53.7159 38.1225 51.8479 34.3299 51.8689C30.5373 51.8898 29.745 53.7224 26.9498 53.6966C23.8047 53.6674 21.3996 50.545 19.5985 47.7696C14.5625 40.0072 14.0364 30.8973 17.1417 26.0546C19.3493 22.6127 22.8305 20.5979 26.105 20.5979C29.4384 20.5979 31.534 22.4493 34.2901 22.4493C36.9634 22.4493 38.5933 20.595 42.4467 20.595C45.3598 20.595 48.4465 22.2007 50.646 24.9788C43.4403 28.9773 44.6103 39.3988 51.8918 42.1849Z" fill="white"/>
<path fill-rule="evenodd" clip-rule="evenodd" d="M39.5238 17.495C40.9231 15.6754 41.9873 13.1045 41.6014 10.4783C39.3148 10.6377 36.6386 12.1112 35.0761 14.0322C33.6582 15.7765 32.4877 18.363 32.9436 20.8765C35.4404 20.9548 38.0237 19.4448 39.5238 17.495Z" fill="white"/>
<path fill-rule="evenodd" clip-rule="evenodd" d="M181.26 45.831H171.135C171.175 47.2209 171.665 48.4396 172.605 49.2392C173.457 49.958 174.56 50.2858 175.916 50.2858C177.418 50.2858 178.779 50.0283 180.009 49.5359L180.54 51.904C179.109 52.5422 177.407 52.8469 175.444 52.8469C173.095 52.8469 171.246 52.1478 169.902 50.7458C168.56 49.3441 167.883 47.4602 167.883 45.0998C167.883 42.7753 168.511 40.8491 169.757 39.3026C171.076 37.66 172.846 36.839 175.071 36.839C177.265 36.839 178.919 37.6596 180.04 39.3022C180.933 40.6137 181.384 42.2936 181.384 44.2134C181.384 44.8204 181.34 45.4339 181.26 45.831ZM166.873 40.1899C166.677 40.1284 166.157 40.1032 165.784 40.1032C164.597 40.1032 163.67 40.5559 163.023 41.4613C162.459 42.2644 162.167 43.2618 162.167 44.4954V52.3833H158.833V42.0216C158.833 40.2602 158.761 38.6831 158.702 37.0947H161.638L161.763 40.2715H161.856C162.208 39.2788 162.768 38.376 163.543 37.7692C164.293 37.2144 165.135 36.9128 166.009 36.9128C166.319 36.9128 166.677 36.8934 166.873 36.9349V40.1899ZM154.672 50.5741C153.272 52.131 151.419 52.9105 149.111 52.9105C146.879 52.9105 145.098 52.1621 143.776 50.6642C142.455 49.1709 141.796 47.2757 141.796 45.0007C141.796 42.6198 142.477 40.6661 143.841 39.1497C145.208 37.625 147.041 36.8761 149.352 36.8761C151.59 36.8761 153.38 37.6169 154.734 39.1219C156.021 40.569 156.667 42.4523 156.667 44.7487C156.667 47.1179 156.005 49.0508 154.672 50.5741ZM140.793 39.8744H137.263V47.2197C137.263 49.1167 137.845 50.0571 139.157 50.0571C139.761 50.0571 140.217 50.0124 140.616 49.9081L140.692 52.4963C140.024 52.7492 139.141 52.8777 138.058 52.8777C136.731 52.8777 135.647 52.4719 134.899 51.6433C134.142 50.8247 133.734 49.4411 133.734 47.5007V39.8744H131.577V37.0947H133.734V34.3713L137.263 33.3585V37.0947H140.793V39.8744V39.8744ZM128.932 51.0097C127.554 52.256 125.644 52.8753 123.193 52.8753C120.922 52.8753 119.107 52.4304 117.735 51.5484L118.519 48.7015C119.997 49.5833 121.621 50.0309 123.387 50.0309C124.663 50.0309 125.65 49.7368 126.359 49.1612C127.064 48.5832 127.418 47.8086 127.418 46.8262C127.418 45.9732 127.126 45.2449 126.546 44.6508C125.958 44.0615 124.997 43.5171 123.641 43.0062C119.958 41.6181 118.113 39.5828 118.113 36.9045C118.113 35.1544 118.757 33.7155 120.061 32.5988C121.363 31.4838 123.086 30.9229 125.234 30.9229C127.15 30.9229 128.744 31.263 130.017 31.9333L129.166 34.7188C127.979 34.0667 126.629 33.7362 125.124 33.7362C123.935 33.7362 123.002 34.0427 122.331 34.6195C121.77 35.1542 121.488 35.7973 121.488 36.554C121.488 37.3921 121.811 38.0914 122.456 38.6478C123.02 39.1517 124.041 39.6969 125.515 40.2868C127.333 41.0193 128.662 41.8896 129.519 42.8839C130.37 43.8745 130.799 45.1063 130.799 46.5804C130.799 48.3966 130.173 49.877 128.932 51.0097ZM109.434 50.8906C108.177 52.2348 106.608 52.9103 104.741 52.9103C102.732 52.9103 101.379 52.1842 100.398 50.723V58.9356H97.0645V42.238C97.0645 40.5944 97.0024 39.0802 96.9212 37.0947H99.8816L100.077 39.6759H100.135C101.268 37.8889 102.969 36.9033 105.261 36.9033C107.053 36.9033 108.548 37.6006 109.745 39.0383C110.946 40.4691 111.544 42.3546 111.544 44.6941C111.544 47.3166 110.842 49.3685 109.434 50.8906ZM92.7507 50.8906C91.4963 52.2348 89.9299 52.9103 88.0684 52.9103C86.0528 52.9103 84.7108 52.1842 83.7303 50.723V58.9356H80.3968V42.238C80.3968 40.5944 80.3195 39.0802 80.2338 37.0947H83.2022L83.3887 39.6759H83.4475C84.5784 37.8889 86.2836 36.9033 88.5783 36.9033C90.3694 36.9033 91.8601 37.6006 93.065 39.0383C94.2587 40.4691 94.8597 42.3546 94.8597 44.6941C94.8597 47.3166 94.1584 49.3685 92.7507 50.8906ZM74.7046 52.3833L72.7382 46.2282H65.8934L64.0161 52.3833H60.5201L67.2945 31.1381H71.486L78.3009 52.3833H74.7046ZM174.822 39.2073C173.721 39.2073 172.826 39.7787 172.135 40.7012C171.574 41.4377 171.237 42.2571 171.135 43.4484H178.165C178.183 42.2571 177.969 41.4724 177.512 40.7302C176.926 39.7847 176.028 39.2073 174.822 39.2073ZM69.298 34.1164H69.2392C69.027 35.1092 68.6983 36.4305 68.2358 38.2046L66.4858 43.8455H72.1395L70.3661 38.2046C70.1741 37.6326 69.8161 36.1019 69.298 34.1164ZM104.168 39.5875C103.332 39.5875 102.585 39.8649 101.905 40.4232C101.228 40.9897 100.772 41.7224 100.562 42.6298C100.459 43.0551 100.398 43.3998 100.398 43.6761V46.2349C100.398 47.3549 100.743 48.3019 101.423 49.0716C102.099 49.8343 102.986 50.2217 104.064 50.2217C105.342 50.2217 106.333 49.7291 107.042 48.7353C107.751 47.7433 108.109 46.4362 108.109 44.8077C108.109 43.3142 107.774 42.0788 107.109 41.1112C106.375 40.1032 105.395 39.5875 104.168 39.5875ZM149.229 39.3749C147.879 39.3749 146.847 39.9817 146.142 41.2036C145.532 42.2088 145.233 43.4367 145.233 44.8883C145.233 46.3034 145.531 47.5096 146.142 48.5175C146.864 49.737 147.886 50.3438 149.204 50.3438C150.487 50.3438 151.502 49.7287 152.227 48.4794C152.856 47.459 153.17 46.2345 153.17 44.8293C153.17 43.4224 152.868 42.2088 152.268 41.2034C151.55 39.9817 150.543 39.3749 149.229 39.3749ZM87.4802 39.5875C86.6485 39.5875 85.8971 39.8649 85.2181 40.4232C84.5394 40.9897 84.0964 41.7224 83.8868 42.6298C83.7842 43.0551 83.7305 43.3998 83.7305 43.6761V46.2349C83.7305 47.3549 84.065 48.3019 84.7465 49.0716C85.422 49.8343 86.3048 50.2217 87.386 50.2217C88.654 50.2217 89.6511 49.7291 90.358 48.7353C91.0661 47.7433 91.4173 46.4362 91.4173 44.8077C91.4173 43.3142 91.0882 42.0788 90.4207 41.1112C89.688 40.1032 88.7106 39.5875 87.4802 39.5875Z" fill="white"/>
<path d="M64.9661 22.7672L64.0307 25.8863H61.9825L65.4661 14.8799H67.998L71.53 25.8863H69.4013L68.4175 22.7672H64.9661V22.7672ZM68.0788 21.2487L67.2241 18.5378C67.0144 17.8683 66.837 17.1172 66.6756 16.4802H66.6434C66.4821 17.1172 66.3207 17.8848 66.1273 18.5378L65.2886 21.2487H68.0788Z" fill="white"/>
<path d="M73.7879 17.9338L75.0621 21.9673C75.2878 22.6695 75.449 23.3065 75.5941 23.9595H75.6426C75.7877 23.3065 75.9651 22.6858 76.1748 21.9673L77.4166 17.9338H79.5132L76.5134 25.8865H74.5621L71.6431 17.9338H73.7879V17.9338Z" fill="white"/>
<path d="M85.047 25.8863L84.918 25.0045H84.8695C84.3858 25.625 83.5632 26.066 82.5472 26.066C80.9667 26.066 80.0796 24.9066 80.0796 23.698C80.0796 21.6896 81.8376 20.677 84.7405 20.6933V20.5626C84.7405 20.0401 84.5309 19.1746 83.1439 19.1746C82.3697 19.1746 81.5634 19.4196 81.0312 19.7625L80.6441 18.4562C81.2248 18.0968 82.2407 17.7539 83.4826 17.7539C85.9984 17.7539 86.7242 19.3705 86.7242 21.1017V23.9758C86.7242 24.6941 86.7565 25.3964 86.8371 25.8863H85.047ZM84.7889 21.9998C83.3859 21.967 82.0472 22.2774 82.0472 23.4858C82.0472 24.2696 82.5472 24.6288 83.1761 24.6288C83.9663 24.6288 84.547 24.1062 84.7244 23.5348C84.7727 23.3879 84.7889 23.2245 84.7889 23.0938V21.9998V21.9998Z" fill="white"/>
<path d="M101.047 25.8863L100.918 25.0045H100.87C100.386 25.625 99.5632 26.066 98.5472 26.066C96.9667 26.066 96.0796 24.9066 96.0796 23.698C96.0796 21.6896 97.8376 20.677 100.741 20.6933V20.5626C100.741 20.0401 100.531 19.1746 99.1439 19.1746C98.3697 19.1746 97.5634 19.4196 97.0312 19.7625L96.6441 18.4562C97.2248 18.0968 98.2407 17.7539 99.4826 17.7539C101.998 17.7539 102.724 19.3705 102.724 21.1017V23.9758C102.724 24.6941 102.757 25.3964 102.837 25.8863H101.047ZM100.789 21.9998C99.3859 21.967 98.0472 22.2774 98.0472 23.4858C98.0472 24.2696 98.5472 24.6288 99.1761 24.6288C99.9663 24.6288 100.547 24.1062 100.724 23.5348C100.773 23.3879 100.789 23.2245 100.789 23.0938V21.9998V21.9998Z" fill="white"/>
<path d="M94.8213 14.2922H92.8215V25.8866H94.8213V14.2922Z" fill="white"/>
<path d="M91.0778 15.7131C91.0778 16.3173 90.6425 16.7909 89.9489 16.7909C89.2877 16.7909 88.8524 16.3173 88.8524 15.7131C88.8524 15.0926 89.3038 14.6189 89.965 14.6189C90.6425 14.6189 91.0617 15.0926 91.0778 15.7131ZM88.9651 17.9339H90.9649V25.8866H88.9651V17.9339Z" fill="white"/>
<path d="M104.029 25.8866C104.061 25.3477 104.093 24.4659 104.093 23.6495V14.2922H106.077V19.0279H106.109C106.593 18.2605 107.448 17.7542 108.625 17.7542C110.544 17.7542 111.915 19.3708 111.899 21.7878C111.899 24.6456 110.109 26.0663 108.335 26.0663C107.319 26.0663 106.416 25.6743 105.851 24.6945H105.819L105.722 25.8866H104.029V25.8866ZM106.077 22.6043C106.077 22.7675 106.093 22.9309 106.126 23.0778C106.335 23.878 107.029 24.4822 107.883 24.4822C109.125 24.4822 109.883 23.4698 109.883 21.8694C109.883 20.4651 109.222 19.322 107.899 19.322C107.093 19.322 106.367 19.9099 106.142 20.7917C106.109 20.9386 106.077 21.1183 106.077 21.3143V22.6043Z" fill="white"/>
<path d="M115.53 14.2922H113.53V25.8866H115.53V14.2922Z" fill="white"/>
<path d="M119.077 22.4733C119.126 23.9105 120.239 24.5309 121.497 24.5309C122.416 24.5309 123.077 24.4003 123.674 24.1716L123.964 25.5596C123.287 25.8374 122.351 26.0495 121.223 26.0495C118.674 26.0495 117.174 24.4656 117.174 22.0325C117.174 19.828 118.497 17.7539 121.013 17.7539C123.561 17.7539 124.399 19.8768 124.399 21.6241C124.399 21.9998 124.367 22.2936 124.335 22.4733H119.077V22.4733ZM122.529 21.069C122.545 20.3341 122.222 19.1257 120.9 19.1257C119.674 19.1257 119.158 20.2525 119.077 21.069H122.529Z" fill="white"/>
<path d="M136.801 21.8366C136.801 24.7597 134.769 26.066 132.769 26.066C130.543 26.066 128.834 24.5147 128.834 21.9672C128.834 19.3542 130.527 17.7539 132.898 17.7539C135.237 17.7539 136.801 19.4198 136.801 21.8366ZM130.882 21.9182C130.882 23.4532 131.624 24.6125 132.834 24.6125C133.962 24.6125 134.753 23.4859 134.753 21.8854C134.753 20.6444 134.204 19.2238 132.85 19.2238C131.447 19.2238 130.882 20.5954 130.882 21.9182Z" fill="white"/>
<path d="M138.432 20.3013C138.432 19.387 138.415 18.6194 138.367 17.9336H140.109L140.206 19.1257H140.254C140.593 18.505 141.448 17.7539 142.754 17.7539C144.125 17.7539 145.544 18.652 145.544 21.1668V25.8863H143.56V21.3956C143.56 20.2523 143.141 19.387 142.061 19.387C141.27 19.387 140.722 19.9584 140.512 20.5626C140.448 20.7423 140.432 20.9873 140.432 21.2159V25.8863H138.432V20.3013H138.432Z" fill="white"/>
<path d="M153.27 15.6641V17.9339H155.157V19.4364H153.27V22.9472C153.27 23.9108 153.528 24.4169 154.285 24.4169C154.624 24.4169 154.882 24.3679 155.06 24.319L155.092 25.854C154.802 25.9682 154.285 26.05 153.657 26.05C152.931 26.05 152.318 25.805 151.947 25.3968C151.528 24.9395 151.334 24.2209 151.334 23.1759V19.4364H150.205V17.9339H151.334V16.1376L153.27 15.6641Z" fill="white"/>
<path d="M156.656 14.2922H158.656V19.0279H158.688C158.93 18.6523 159.253 18.3421 159.672 18.1136C160.059 17.8849 160.527 17.7542 161.027 17.7542C162.366 17.7542 163.768 18.6523 163.768 21.1999V25.8866H161.785V21.4284C161.785 20.2691 161.366 19.4036 160.269 19.4036C159.495 19.4036 158.947 19.9262 158.737 20.5302C158.673 20.6936 158.656 20.9061 158.656 21.1346V25.8866H156.657V14.2922H156.656Z" fill="white"/>
<path d="M167.285 22.4733C167.334 23.9105 168.446 24.5309 169.704 24.5309C170.624 24.5309 171.285 24.4003 171.882 24.1716L172.172 25.5596C171.494 25.8374 170.559 26.0495 169.43 26.0495C166.882 26.0495 165.382 24.4656 165.382 22.0325C165.382 19.828 166.705 17.7539 169.221 17.7539C171.769 17.7539 172.607 19.8768 172.607 21.6241C172.607 21.9998 172.575 22.2936 172.543 22.4733H167.285V22.4733ZM170.737 21.069C170.753 20.3341 170.43 19.1257 169.108 19.1257C167.882 19.1257 167.366 20.2525 167.285 21.069H170.737Z" fill="white"/>
</svg>
