<svg width="54" height="54" viewBox="0 0 54 54" fill="none" xmlns="http://www.w3.org/2000/svg">
<path d="M35.6667 46.5C35.6667 50.0899 32.7565 53 29.1667 53C25.5768 53 7.5 53 7.5 53C3.91015 53 1 50.0899 1 46.5C1 42.9102 1 28.4232 1 24.8333C1 21.2435 3.91015 18.3333 7.5 18.3333L29.1667 18.3333C32.7565 18.3333 35.6667 21.2435 35.6667 24.8333V46.5Z" stroke="black" stroke-width="2" stroke-linecap="round" stroke-linejoin="round"/>
<path d="M53 29.1667C53 32.7565 50.0899 35.6667 46.5 35.6667C42.9102 35.6667 24.8333 35.6667 24.8333 35.6667C21.2435 35.6667 18.3333 32.7565 18.3333 29.1667C18.3333 25.5768 18.3333 11.0899 18.3333 7.5C18.3333 3.91015 21.2435 1 24.8333 1L46.5 1C50.0899 1 53 3.91015 53 7.5V29.1667Z" stroke="black" stroke-width="2" stroke-linecap="round" stroke-linejoin="round"/>
</svg>
