<svg width="152" height="101" viewBox="0 0 152 101" fill="none" xmlns="http://www.w3.org/2000/svg">
<g clip-path="url(#clip0_221_1385)">
<path d="M0.5 12.625C0.5 5.65241 6.13375 0 13.0833 0H138.917C145.866 0 151.5 5.65241 151.5 12.625V88.375C151.5 95.3476 145.866 101 138.917 101H13.0833C6.13375 101 0.5 95.3476 0.5 88.375V12.625Z" fill="#002E33"/>
<path fill-rule="evenodd" clip-rule="evenodd" d="M128.415 34.4576C126.661 34.4576 124.726 35.439 123.954 37.2029L115.752 56.0654L112.798 37.2029C112.451 35.439 111.256 34.4576 109.366 34.4576L98.9766 34.4576L107.863 65.7835C108.026 66.385 108.057 67.0502 107.938 67.7512C107.472 70.3652 104.984 72.486 102.377 72.486L96.5585 72.486C95.081 72.486 94.1078 73.4047 93.6321 75.4827L92.3398 83.2461L102.587 83.2461C107.932 83.2461 114.21 80.5516 118.398 73.1004L138.916 34.4576L128.415 34.4576Z" fill="#E1E5EA"/>
<path fill-rule="evenodd" clip-rule="evenodd" d="M27.5526 25.1106C30.6208 25.1106 32.1033 26.3385 31.5642 29.4248L30.6792 34.4529L37.7292 34.4529L36.1763 43.2851L29.1234 43.2851L27.2018 54.2212C26.5378 58.0313 30.2967 58.5384 32.4531 58.5384C32.8832 58.5384 33.24 58.5294 33.4956 58.5145L31.7713 68.3639C31.2391 68.4206 30.6901 68.4941 29.5297 68.4941C24.1773 68.4941 14.0522 67.0564 16.0431 55.7236L18.2233 43.2851L13.083 43.2851L14.63 34.4529L19.7197 34.4529L21.3579 25.1106L27.5526 25.1106Z" fill="#E1E5EA"/>
<path fill-rule="evenodd" clip-rule="evenodd" d="M86.7951 34.8576L84.9845 45.1553C87.2172 46.2998 88.7473 48.6244 88.7473 51.309C88.7473 54.8486 86.1023 57.7499 82.6973 58.1665L80.8877 68.4623C81.2068 68.4832 81.5318 68.4941 81.8559 68.4941C91.321 68.4941 98.9873 60.7974 98.9873 51.309C98.9873 43.5516 93.853 36.9873 86.7951 34.8576Z" fill="#00A6B6"/>
<path fill-rule="evenodd" clip-rule="evenodd" d="M78.7323 57.4628C76.5016 56.3244 74.9675 53.9888 74.9675 51.3072C74.9675 47.7895 77.6184 44.8673 81.0225 44.4566L82.8301 34.1598C82.509 34.14 82.182 34.125 81.8599 34.125C72.4018 34.125 64.7314 41.8268 64.7314 51.3072C64.7314 59.0686 69.8678 65.6368 76.9257 67.7666L78.7323 57.4628Z" fill="#00A6B6"/>
<path fill-rule="evenodd" clip-rule="evenodd" d="M41.8119 34.4538L47.8698 34.4538C50.939 34.4538 52.4156 35.6848 51.8745 38.772L51.2115 42.5065C53.469 37.91 58.3646 34.1178 63.386 34.1178C64.045 34.1178 64.6792 34.249 64.6792 34.249L62.721 45.386C62.721 45.386 61.842 45.1811 60.4704 45.1811C57.7947 45.1811 53.2688 46.0323 50.7497 51.0772C50.1492 52.3211 49.6873 53.8334 49.3673 55.6559L47.1752 68.168L35.8906 68.168L41.8119 34.4538Z" fill="#E1E5EA"/>
<path fill-rule="evenodd" clip-rule="evenodd" d="M138.916 69.7437C138.916 70.749 138.561 71.608 137.854 72.313C137.153 73.0199 136.3 73.3828 135.293 73.3828C134.297 73.3828 133.444 73.0199 132.732 72.313C132.027 71.608 131.671 70.749 131.671 69.7437C131.671 68.7425 132.027 67.8854 132.732 67.1725C133.444 66.4666 134.297 66.1106 135.293 66.1106C136.3 66.1106 137.153 66.4666 137.854 67.1725C138.561 67.8854 138.916 68.7425 138.916 69.7437ZM138.347 69.7437C138.347 70.6028 138.048 71.3336 137.449 71.9351C136.857 72.5416 136.131 72.8429 135.293 72.8429C134.457 72.8429 133.739 72.5416 133.142 71.9351C132.552 71.3336 132.258 70.6028 132.258 69.7437C132.258 68.8877 132.552 68.1598 133.142 67.5543C133.739 66.9468 134.457 66.6446 135.293 66.6446C136.131 66.6446 136.857 66.9468 137.449 67.5543C138.048 68.1598 138.347 68.8877 138.347 69.7437ZM136.816 71.7343L136.173 71.7343L135.263 70.1076L134.665 70.1076L134.665 71.7343L134.116 71.7343L134.116 67.7492L135.464 67.7492C135.811 67.7492 136.108 67.8675 136.35 68.0932C136.591 68.3219 136.719 68.6063 136.719 68.9414C136.719 69.4952 136.431 69.8621 135.863 70.0361L136.816 71.7343ZM136.151 68.9414C136.151 68.7425 136.086 68.5745 135.942 68.4382C135.802 68.303 135.623 68.2394 135.403 68.2394L134.665 68.2394L134.665 69.6364L135.403 69.6364C135.623 69.6364 135.802 69.5668 135.942 69.4415C136.086 69.3082 136.151 69.1462 136.151 68.9414Z" fill="#2F3842"/>
</g>
<defs>
<clipPath id="clip0_221_1385">
<rect width="151" height="101" fill="white" transform="translate(0.5)"/>
</clipPath>
</defs>
</svg>
