<svg width="152" height="101" viewBox="0 0 152 101" fill="none" xmlns="http://www.w3.org/2000/svg">
<g clip-path="url(#clip0_221_1380)">
<path d="M0.5 12.625C0.5 5.65241 6.13375 0 13.0833 0H138.917C145.866 0 151.5 5.65241 151.5 12.625V88.375C151.5 95.3476 145.866 101 138.917 101H13.0833C6.13375 101 0.5 95.3476 0.5 88.375V12.625Z" fill="#0C1727"/>
<path d="M130.454 31.6738H122.543C120.152 31.6738 118.312 32.4121 117.208 34.8116L102.123 69.3273H112.793C112.793 69.3273 114.633 64.7129 115.001 63.6055C116.105 63.6055 126.591 63.6055 128.062 63.6055C128.43 64.8975 129.35 69.1428 129.35 69.1428H138.916L130.454 31.6738ZM117.944 55.8533C118.864 53.6384 121.991 45.3325 121.991 45.3325C121.991 45.517 122.911 43.1175 123.279 41.8255L124.015 45.1479C124.015 45.1479 126.039 54.1921 126.407 56.0379H117.944V55.8533Z" fill="#96BFFF"/>
<path d="M102.859 56.9598C102.859 64.712 95.8684 69.8801 85.0143 69.8801C80.4152 69.8801 76 68.9572 73.6084 67.8498L75.0801 59.3593L76.3679 59.913C79.6793 61.3896 81.8869 61.9433 85.9342 61.9433C88.8776 61.9433 92.0051 60.8359 92.0051 58.2518C92.0051 56.5906 90.7173 55.4832 86.67 53.6374C82.8067 51.7917 77.6557 48.8384 77.6557 43.4857C77.6557 36.1027 84.8304 31.1191 94.9486 31.1191C98.8119 31.1191 102.123 31.8574 104.147 32.7803L102.675 40.9017L101.939 40.1634C100.1 39.4251 97.7081 38.6868 94.2127 38.6868C90.3494 38.8713 88.5097 40.5325 88.5097 42.0091C88.5097 43.6703 90.7173 44.9623 94.2127 46.6235C100.1 49.3922 102.859 52.53 102.859 56.9598Z" fill="#96BFFF"/>
<path d="M13.083 32.042L13.267 31.3037H29.0881C31.2957 31.3037 32.9514 32.042 33.5033 34.4415L36.9987 51.0533C33.5033 42.1937 25.4088 34.9952 13.083 32.042Z" fill="#F9B50B"/>
<path d="M59.2587 31.6738L43.2536 69.1428H32.3995L23.2012 37.7648C29.824 42.0101 35.343 48.6548 37.3666 53.2692L38.4704 57.1453L48.4046 31.4893H59.2587V31.6738Z" fill="#96BFFF"/>
<path d="M63.4896 31.4893H73.6078L67.169 69.1428H57.0508L63.4896 31.4893Z" fill="#96BFFF"/>
</g>
<defs>
<clipPath id="clip0_221_1380">
<rect width="151" height="101" fill="white" transform="translate(0.5)"/>
</clipPath>
</defs>
</svg>
