<svg width="152" height="101" viewBox="0 0 152 101" fill="none" xmlns="http://www.w3.org/2000/svg">
<g clip-path="url(#clip0_221_1386)">
<path d="M0.5 12.625C0.5 5.65241 6.13375 0 13.0833 0H138.917C145.866 0 151.5 5.65241 151.5 12.625V88.375C151.5 95.3476 145.866 101 138.917 101H13.0833C6.13375 101 0.5 95.3476 0.5 88.375V12.625Z" fill="#2E1705"/>
<path d="M109.387 38.328C109.037 36.2198 107.111 34.8142 104.484 34.8142C103.609 34.8142 102.908 34.8142 102.033 34.8142C100.457 34.6385 100.106 35.1656 100.106 36.3955C100.106 42.5446 100.106 48.5181 100.106 54.6672C100.106 57.8296 96.9544 61.1677 93.2771 61.8705C81.7198 64.5059 70.1625 66.9655 58.6052 69.6009C57.3794 69.9522 55.9786 69.9522 54.5777 69.9522C54.0524 69.9522 53.1768 69.6008 53.0017 69.0738C52.8266 68.7224 53.3519 68.0197 53.7022 67.6683C54.2275 67.3169 54.9279 66.9655 55.6284 66.6141C57.7297 65.9114 60.0061 65.2086 62.1074 64.5059C70.6878 61.6948 79.2682 58.8838 87.8486 55.897C91.701 54.6672 93.8024 52.0319 93.8024 48.6938C93.9775 38.1524 93.8024 27.4353 93.8024 16.8939C93.8024 15.137 92.9268 13.7315 91.0006 13.0287C88.7242 12.1502 86.6228 12.853 84.6966 13.7314C72.4389 19.5292 60.3563 25.327 48.0986 31.1248C44.5964 32.8817 42.4951 35.3413 42.4951 38.8551C42.4951 48.8694 42.4951 58.8838 42.4951 68.8981C42.4951 69.4252 42.4951 69.9523 42.6702 70.3036C43.896 73.6417 47.048 75.75 51.2506 75.75C59.831 75.75 68.4114 75.75 76.9918 75.75C85.5722 75.75 93.9775 75.75 102.558 75.75C104.484 75.75 106.06 75.3986 107.461 74.1688C109.212 72.7633 109.212 70.8307 109.212 69.0738C109.212 60.4302 109.387 38.328 109.387 38.328ZM73.6647 35.1656C74.5402 32.8817 76.4665 31.4761 79.2682 31.1248C81.1945 30.9491 82.7704 32.0032 83.1206 33.7601C83.4709 36.3955 80.3189 39.5579 76.9918 39.5579C74.3651 39.5579 72.7891 37.6253 73.6647 35.1656Z" fill="#E47418"/>
</g>
<defs>
<clipPath id="clip0_221_1386">
<rect width="151" height="101" fill="white" transform="translate(0.5)"/>
</clipPath>
</defs>
</svg>
